<?xml version="1.0" encoding="UTF-8"?>
<svg id="_Слой_1" data-name="Слой 1" xmlns="http://www.w3.org/2000/svg" viewBox="0 0 233.92 382">
  <defs>
    <style>
      .cls-1 {
        stroke: #7f0700;
      }

      .cls-1, .cls-2, .cls-3, .cls-4 {
        fill: none;
        stroke-miterlimit: 10;
      }

      .cls-5 {
        fill: #3f2d0f;
      }

      .cls-5, .cls-6, .cls-7, .cls-8, .cls-9 {
        stroke-width: 0px;
      }

      .cls-6 {
        fill: #c4c2c2;
      }

      .cls-2, .cls-3 {
        stroke: #c4c2c2;
      }

      .cls-2, .cls-4 {
        stroke-width: 2px;
      }

      .cls-7 {
        fill: #56381b;
      }

      .cls-8 {
        fill: #7f0700;
      }

      .cls-9 {
        fill: #7f5c36;
      }

      .cls-4 {
        stroke: #545454;
      }
    </style>
  </defs>
  <g>
    <rect class="cls-7" x="200.42" y="1.5" width="31" height="307"/>
    <path class="cls-5" d="M229.92,3v304h-28V3h28M232.92,0h-34v310h34V0h0Z"/>
  </g>
  <g>
    <g>
      <path class="cls-8" d="M217.34,67.51c-.34-2.51-1.88-4.9-4.59-5.27l-1.2,8.84c1.84-.09,5.02-.54,6.61.67l-2.07-2.69c-.21-1.51-1.14,1.53-.26.59l4.38-1.16c-3.61-.95-7.23-1.93-10.87-2.82-5.62-1.38-8.02,7.3-2.39,8.68,3.64.89,7.26,1.87,10.87,2.82,1.52.4,3.28.01,4.38-1.16,2.53-2.68,4.24-9.03.96-11.68-3.04-2.45-7.92-2.44-11.61-2.25-2.22.11-4.15,1.62-4.42,3.9-.23,1.97.98,4.63,3.22,4.94l-.09-.09-1.61-1.61.28.46-.61-2.27c.11.83.22,1.67.33,2.5.33,2.41,3.42,3.73,5.54,3.14,2.6-.71,3.47-3.12,3.14-5.54h0Z"/>
      <g>
        <line class="cls-2" x1="224.92" y1="64" x2="218.92" y2="78"/>
        <line class="cls-2" x1="210.71" y1="60.37" x2="204.71" y2="74.37"/>
        <path class="cls-6" d="M207.66,61.61c-1.68.19-3.36.31-5.05.35-.37,0-.73,0-1.1.02-.89.06-1.62.49-2.07,1.26-.32.54-.41,1.21-.41,1.83,0,.18,0,.36,0,.53,0,.09,0,.18-.01.27v.13c-.04.22-.03.18.01-.13.04.04-.08.46-.09.53-.03.18-.07.36-.1.53-.1.53-.19,1.06-.26,1.6-.13,1.09-.07,2.25.74,3.09.67.7,1.64.76,2.51,1.05.33.11.65.27.98.36.95.26,2.1-.18,2.56-1.08.38-.74.7-1.51,1.13-2.22.51-.86,1.19-1.63,1.43-2.62s-.31-2.25-1.4-2.46c-1.71-.33-3.47.11-4.7,1.4-.72.76-.81,2.09,0,2.83s2.06.81,2.83,0c.07-.08.18-.15.24-.23-.25.18-.31.23-.18.14.05-.03.09-.06.14-.09.08-.05.16-.09.24-.13.17-.1-.48.17-.06.03.09-.03.18-.05.27-.07.36-.11-.47,0-.09,0,.11,0,.22,0,.33,0,.37,0-.48-.09-.09-.01l-1.4-2.46c-.02.07-.14.42-.02.12s-.05.06-.07.1c-.1.17-.21.33-.32.48-.24.35-.47.71-.69,1.07s-.4.7-.58,1.06c-.1.2-.2.4-.29.61-.04.08-.07.16-.11.25-.12.28-.16.19.13-.08l.88-.51c.78.1,1,.09.66-.03-.08-.04-.17-.07-.25-.1-.13-.05-.26-.1-.39-.14-.28-.1-.57-.18-.86-.25-.13-.03-.26-.06-.39-.09-.19-.05-.36-.21.12.07.31.19.51.47.62.84l.03.31c-.04-.16-.02-.37-.02-.54,0-.13.02-.27.02-.4.02-.47-.08.46,0,0,.05-.31.11-.62.17-.93.14-.7.27-1.42.3-2.14.01-.29.02-.58,0-.87,0-.16,0-.09-.04.21.06-.22.03-.17-.09.14-.46.83-1.97.76-1.11.75.64,0,1.27-.02,1.91-.05,1.32-.06,2.64-.16,3.95-.31.55-.06,1.01-.18,1.41-.59.35-.35.61-.92.59-1.41-.04-.98-.89-2.12-2-2h0Z"/>
        <path class="cls-6" d="M223.53,66.39c-.22.54-.44,1.08-.67,1.62l.2-.48c-.11.26-.23.5-.4.73-.71.98,0,2.73,1.2,2.94.68.12,1.22.12,1.89,0,.36-.06.7-.16,1.04-.29.65-.25,1.28-.57,1.98-.68l-.53.07c.26-.03.53-.04.8-.06.6-.07,1.05-.17,1.59-.44.28-.14.56-.45.72-.72.23-.39.3-.83.24-1.28-.1-.75-.66-1.49-1.43-1.66s-1.58-.33-2.38-.47c-.54-.1-1.05-.08-1.54.2-.41.24-.81.72-.92,1.2-.12.51-.09,1.09.2,1.54.27.41.69.83,1.2.92.8.14,1.59.3,2.38.47l-.48-3.66-.08.04.48-.2c-.14.06-.27.09-.41.12l.53-.07c-.47.06-.94.07-1.42.15-.35.06-.69.16-1.03.29-.66.25-1.29.57-1.99.68l.53-.07c-.25.03-.49.04-.74,0l.53.07-.09-.02,1.2,2.94c.33-.46.51-1.01.73-1.52l.54-1.3c.18-.45.03-1.15-.2-1.54-.24-.41-.72-.81-1.2-.92-.51-.12-1.09-.09-1.54.2l-.4.31c-.25.25-.42.54-.51.88h0Z"/>
      </g>
    </g>
    <polygon class="cls-4" points="198.92 56.17 232.42 66.99 232.42 82.17 198.92 72 198.92 56.17"/>
  </g>
  <g>
    <line class="cls-3" x1="209.49" y1="76.32" x2="209.49" y2="92.16"/>
    <path class="cls-6" d="M204.37,83.23c2.1-.06,4.57-.72,4.69-3.24h-5c.04,1.87.11,3.73.2,5.6.05.9.1,1.8.15,2.69.07,1.15.03,2.45.69,3.45.72,1.09,2.24,1.66,3.42.9,1.09-.7,1.67-2.25.9-3.42-.14-.23-.13-.18.05.15l.04.33c-.09-.11-.04-.54-.05-.68-.03-.41-.05-.83-.08-1.24-.05-.86-.1-1.73-.14-2.59-.08-1.73-.14-3.45-.18-5.18-.03-1.31-1.13-2.56-2.5-2.5s-2.44,1.1-2.5,2.5v.12c.11-.42.22-.84.34-1.26l.64-.63c.37-.14.45-.18.24-.12-.15.02-.31.07-.45.11-.4.09.07-.06.11,0-.01-.01-.53.03-.56.03-1.31.04-2.56,1.12-2.5,2.5s1.1,2.54,2.5,2.5h0Z"/>
    <g>
      <path class="cls-8" d="M224.13,75.82c.16,1.53.16,2.83.03,4.37l.72-.91c-.55.23-1.09.46-1.64.69l6.02,3.45c-.07-2.11-.09-4.21-.06-6.31.04-2.82-2.57-4.27-5.06-3.86-2.19.36-4.16,1.38-6.36,1.75-2.74.46-5.52.77-8.27,1.15-3.73.52-3.46,5.61-.96,7.31.91.62,1.99,1.1,3.1,1.23,1.45.61,1.42.3-.07-.94.03.66.06,1.32.09,1.98.24,5.13,8.24,5.16,8,0-.1-2.23.13-4.73-1.46-6.51s-3.91-1.51-5.62-2.67l-.96,7.31c2.75-.38,5.53-.69,8.27-1.15,2.2-.37,4.17-1.39,6.36-1.75l-5.06-3.86c-.03,2.11,0,4.21.06,6.31.11,3.3,3.26,4.63,6.02,3.45,1.89-.8,3.25-1.25,4.19-3.33,1.03-2.28.91-5.32.67-7.73-.52-5.07-8.52-5.13-8,0h0Z"/>
      <path class="cls-8" d="M224.13,75.68c1.21-.03,2.43-.17,3.61-.42.47-.1.96-.2,1.42-.38s.86-.37,1.23-.72c.33-.32.65-.81.73-1.27.1-.54.08-1.05-.2-1.54-.24-.41-.72-.81-1.2-.92-.51-.12-1.09-.09-1.54.2-.41.27-.83.69-.92,1.2,0,.04-.02.09-.03.13l.2-.48c-.03.06-.06.11-.09.17l.31-.4c-.04.05-.09.09-.14.14l.4-.31c-.09.07-.19.12-.3.17l.48-.2c-.81.32-1.73.47-2.59.59l.53-.07c-.63.08-1.27.13-1.9.15-.52.01-1.04.22-1.41.59-.35.35-.61.92-.59,1.41.05,1.06.88,2.02,2,2h0Z"/>
      <path class="cls-8" d="M227.8,73.99c2.57,0,2.58-4,0-4s-2.58,4,0,4h0Z"/>
    </g>
    <g>
      <path class="cls-6" d="M221.95,72.41c-.04,4.7.1,9.39.43,14.08.09,1.28,2.09,1.29,2,0-.33-4.68-.48-9.38-.43-14.08.01-1.29-1.99-1.29-2,0h0Z"/>
      <g>
        <path class="cls-6" d="M201.99,83.14l.79-.24.4-.12c.23-.07.26-.08.1-.03l-1.01-.27c-.34-.42-.45-.52-.33-.29.05.09.09.19.13.29.3.67-.13-.32.15.36.14.35.28.7.42,1.06.3.78.62,1.56.88,2.36.12.38.23.76.31,1.14.09.45.11.59.14.92.1.89.17,1.78.26,2.67l1.47-1.93c-2.05.31-3.99.96-5.86,1.83l2.94,1.2c.04.2-.04.36.09.04.08-.19.15-.39.22-.59.12-.32.22-.66.3-.99.22-.87.35-1.79.4-2.69.09-1.65-.15-3.36-.7-4.93l-3.66,1.54c.27.36.52.74.73,1.14.03.06.33.74.2.41.08.22.16.43.23.65.3.92.51,1.87.72,2.81.22,1.02,1.47,1.72,2.46,1.4,1.08-.35,1.64-1.36,1.4-2.46-.45-2.08-.97-4.26-2.28-5.98-.61-.8-1.5-1.24-2.5-.82-.86.36-1.49,1.41-1.16,2.36.14.39.26.79.35,1.19.04.17.07.34.11.51.02.1.07.47.04.19.1.79.1,1.6.03,2.39,0,.1-.06.47-.02.19-.03.21-.07.41-.11.61-.08.37-.18.74-.3,1.1-.34,1.03-.63,1.87-.41,2.97.28,1.37,1.86,1.7,2.94,1.2.2-.09.4-.19.6-.27-.25.1.28-.11.33-.13.44-.17.89-.32,1.34-.45.87-.26,1.75-.45,2.64-.58.79-.12,1.54-1.14,1.47-1.93-.13-1.33-.23-2.67-.43-3.99-.18-1.2-.6-2.3-1.02-3.43s-.83-2.49-1.47-3.57c-.53-.88-1.48-1.38-2.51-1.24-.63.09-1.25.33-1.86.51-1,.31-1.74,1.41-1.4,2.46s1.39,1.73,2.46,1.4h0Z"/>
        <path class="cls-6" d="M217.26,74.43c.17,4.57.4,9.14.69,13.71.08,1.28,2.08,1.29,2,0-.3-4.57-.53-9.14-.69-13.71-.05-1.28-2.05-1.29-2,0h0Z"/>
        <path class="cls-6" d="M219.87,88.78c.7-.19,1.42-.34,2.14-.44l-.27.04c.23-.03.47-.06.7-.08.27-.02.51-.09.71-.29.17-.17.3-.46.29-.71s-.1-.53-.29-.71c-.19-.17-.45-.32-.71-.29-1.05.1-2.09.27-3.11.55-.5.14-.86.72-.7,1.23s.69.85,1.23.7h0Z"/>
        <path class="cls-6" d="M218.8,74.76c.92-.2,1.84-.38,2.76-.52l-1.13-.46.06.14-.14-.5v.16c.04-.17.08-.34.13-.5-.13.28-.62.53-.85.79-.36.41-.75.94-.67,1.52.18,1.34,2.05.99,2.97.98.49,0,1.07-.46,1-1-.1-.8-.13-1.6-.08-2.41.07-1.21-1.58-1.24-1.96-.27-.97,2.48-1.87,4.95-2.16,7.61h2l.14-4.3-1.96.27c.48,3.25.44,6.55.41,9.83,0,.96,1.41,1.41,1.86.5,1.49-2.97,1.55-6.31,1.53-9.57,0-1.29-1.98-1.29-2,0-.05,2.94-.1,5.89.28,8.82.07.54.41,1,1,1,.49,0,1.07-.46,1-1-.37-2.93-.33-5.88-.28-8.82h-2c.02,2.87.06,5.93-1.26,8.56l1.86.5c.03-3.47.03-6.92-.48-10.36-.17-1.15-1.93-.81-1.96.27l-.14,4.3c-.04,1.31,1.86,1.25,2,0,.27-2.46,1.19-4.8,2.09-7.08l-1.96-.27c-.05.81-.02,1.6.08,2.41l1-1c-.29,0-.58,0-.87,0-.12,0-.25,0-.37,0-.32-.05-.33,0-.04.17l.26.97c.12-.46.73-.72,1.03-1.03.48-.5.48-1.11.22-1.7-.19-.43-.73-.52-1.13-.46-.93.14-1.85.32-2.76.52-1.26.28-.72,2.21.53,1.93h0Z"/>
        <path class="cls-6" d="M229.5,69.54l.02,8.7v4.21c0,.55-.08,1.19.2,1.69.29.53.92.77,1.5.65,1.32-.27,1.32-1.66,1.27-2.72-.07-1.38-.13-2.75-.2-4.13-.14-2.85-.34-5.71-.04-8.55.06-.54-.5-.99-1-1-.59,0-.94.47-1,1-.25,2.29-.15,4.6-.04,6.9.05,1.15.11,2.29.16,3.44.03.6.06,1.19.09,1.79.01.28.03.55.04.83,0,.19-.05.52.02.68.72.53,1.05.57,1.01.12v-.42c0-.28,0-.56,0-.84v-1.68c0-1.22,0-2.43,0-3.65v-7.02c-.01-1.29-2.01-1.29-2.01,0h0Z"/>
      </g>
      <path class="cls-6" d="M230.29,85.88c.28-1.26.03-2.58.41-3.81.08-.26-.09-.54-.35-.62s-.54.09-.62.35c-.38,1.24-.13,2.56-.41,3.81-.06.26.08.54.35.62.25.07.56-.08.62-.35h0Z"/>
    </g>
    <line class="cls-1" x1="206.34" y1="77.28" x2="206.34" y2="93.6"/>
    <line class="cls-1" x1="217.9" y1="73.44" x2="217.9" y2="89.76"/>
    <path class="cls-8" d="M213.61,77.79c.57-.05,1.08-.18,1.61-.38.41-.15.81-.31,1.25-.38l-.4.05s.09-.01.13-.02c.21,0,.4-.04.58-.13.19-.06.35-.16.48-.31.26-.26.46-.69.44-1.06s-.14-.79-.44-1.06c-.28-.25-.67-.48-1.06-.44-.34.03-.67.08-1,.17-.21.06-.41.14-.62.21-.41.15-.81.31-1.25.37l.4-.05s-.09.01-.13.01c-.21,0-.4.04-.58.13-.19.06-.35.16-.48.31-.26.26-.46.69-.44,1.06s.14.79.44,1.06c.28.25.67.48,1.06.44h0Z"/>
    <path class="cls-8" d="M206.25,81.96c.11,3.17.08,6.34-.06,9.5-.03.71.5,1.21,1.1,1.45.79.31,1.71-.09,2.47-.3s1.51-.42,2.27-.63c1.48-.41,2.96-.83,4.44-1.24.72-.2,1.17-.91,1.07-1.65-.1-.78-.72-1.23-1.47-1.3-2.25-.21-4.51-.19-6.77-.17l1.5,1.5s-.15.39-.16.38c0,0,.21-.24.23-.26.17-.19.34-.38.52-.57.33-.36.67-.7,1.02-1.04.74-.73.48-2.32-.66-2.51-.38-.06-.76-.13-1.13-.19-.17-.03-.35-.06-.52-.09l-.26-.04c-.34-.09-.19.06.46.43l.2.76.02-.14-.2.76c.1-.15.1-.17,0-.05.06-.07.12-.14.19-.21.07-.07.14-.13.21-.2-.11.08-.1.07.05-.03.17-.1.33-.21.52-.29-.13.06-.11.06.06,0,.18-.06.19-.06.04,0l-.76-.2.1.08-.54-.54c-.1-.17-.03-.08,0,.06.03.15.08.3.12.46.07.27.14.55.21.82.14.55.28,1.09.42,1.64.19.76,1.09,1.29,1.85,1.05s1.25-1.03,1.05-1.85c-.27-1.07-.48-2.18-.83-3.22-.32-.94-1.19-1.43-2.15-1.26-.53.09-1.07.34-1.52.63-1.03.65-2.37,2-1.59,3.31.64,1.07,2.14,1.04,3.23,1.23l-.66-2.51c-.47.46-.92.93-1.36,1.42-.55.62-1.21,1.29-1.12,2.19.08.8.62,1.51,1.5,1.5,2.26-.02,4.52-.04,6.77.17l-.4-2.95c-1.36.38-2.72.76-4.08,1.14-.67.19-1.33.37-2,.56-.33.09-.67.19-1,.28-.18.05-.36.1-.54.15l-.18.05c-.27.06-.2.06.21,0l1.1,1.45c.15-3.17.17-6.34.06-9.5-.03-.78-.67-1.54-1.5-1.5s-1.53.66-1.5,1.5h0Z"/>
    <path class="cls-8" d="M217.09,79.33c.71-.52.65-1.36.62-2.15-.03-.92-.1-1.83-.19-2.74-.03-.27-.21-.5-.5-.5-.25,0-.53.23-.5.5.08.8.14,1.59.18,2.39.02.36.04.73.03,1.1,0,.19-.02.44-.15.53-.22.16-.33.44-.18.68.13.22.46.34.68.18h0Z"/>
    <polygon class="cls-4" points="232.92 68.03 199.38 79.67 199.38 96 232.92 85.06 232.92 68.03"/>
  </g>
  <g>
    <g>
      <path class="cls-6" d="M203.75,54.61c3.99.17,7.99.43,11.99.35s9.6-1.57,13.28-.43l-2.1-2.1c.43,1.95.1,4.43.34,6.46l3-3c-1.88-.16-21.82-.12-21.91.58l-1.49,2.59c1.78-.98,6.55-.1,8.58-.13,3.12-.06,6.23-.2,9.34-.39,3.84-.24,3.86-6.24,0-6-5.85.36-11.82-.06-17.64.47-2.78.25-5.32,1.5-4.74,4.71.72,4.05,4.62,4.22,7.93,4.36,6.62.27,13.35-.72,19.92-.17,1.49.12,3.18-1.48,3-3-.3-2.63.02-5.49-.55-8.06-.23-1.03-1.13-1.8-2.1-2.1-3.79-1.18-9.13.02-13.04.16-4.61.16-9.21-.1-13.82-.3-3.86-.16-3.85,5.84,0,6h0Z"/>
      <g>
        <line class="cls-1" x1="205.42" y1="48.5" x2="205.42" y2="61.5"/>
        <line class="cls-1" x1="216.42" y1="49" x2="216.42" y2="62"/>
        <line class="cls-1" x1="227.42" y1="49" x2="227.42" y2="62"/>
        <path class="cls-8" d="M200.42,52.99c1.39.1,2.71-.23,3.96-.81l-3.01-1.73c-.25,3.34-.05,6.69.53,9.99l1.93-2.53c-.39-.03-.78-.05-1.17-.08-.21-.01-.42-.04-.63-.04h-.18c.45.04.81.24,1.06.57,0,0-.21-.4-.21-.42.09.22.11.26.06.12-.03-.07-.05-.15-.08-.22-.1-.32-.16-.65-.23-.98-.02-.15-.02-.1.02.15,0-.08-.02-.16-.02-.23-.02-.18-.03-.37-.03-.55,0-.32,0-.64,0-.95.03-.69.1-1.38.18-2.06.12-1.04-1-2.04-2-2-1.18.05-1.87.88-2,2-.2,1.77-.33,3.57.11,5.32.26,1.04.75,2.3,1.71,2.88.59.36,1.29.36,1.96.4.48.03.96.06,1.44.09.62.04,1.21-.32,1.57-.79.41-.53.47-1.09.36-1.74-.07-.39-.12-.78-.19-1.17-.02-.15-.02-.12,0,.08-.02-.12-.03-.24-.05-.36-.02-.18-.04-.36-.06-.54-.08-.76-.14-1.52-.17-2.27-.07-1.55-.04-3.1.07-4.65.05-.69-.42-1.39-.99-1.73-.66-.39-1.35-.31-2.02,0-.21.1-.2.09.01,0-.11.04-.21.08-.32.11-.22.07-.43.11-.65.16-.23.04-.22.04.03,0-.11.01-.22.02-.34.02-.23,0-.45,0-.67-.02-1.05-.08-2.05.97-2,2,.05,1.15.88,1.92,2,2h0Z"/>
        <path class="cls-8" d="M218.37,52.48c1.16-.08,2.33-.14,3.49-.15s2.3-.08,3.42.05l-1.01-.27.09.05-.72-.72.04.09-.27-1.01c.02.4-.03.82-.03,1.22,0,.49.05.97.12,1.46.06.42.17.83.25,1.25.01.06.08.63.05.18.02.21.03.41.03.62.02,1.57-.42,3.11-.22,4.68.13,1.03.83,2.05,2,2,.97-.04,2.14-.89,2-2-.18-1.45.17-2.88.22-4.33.03-.87-.11-1.72-.3-2.57-.04-.18-.07-.36-.11-.53-.1-.42-.02.28-.03-.19,0-.37,0-.74,0-1.12.02-.58.04-1.15-.26-1.67-.41-.71-1.06-1.06-1.86-1.13-.72-.06-1.46-.05-2.19-.05-1.57,0-3.15.05-4.72.16-1.04.07-2.05.87-2,2,.05,1.02.88,2.08,2,2h0Z"/>
        <path class="cls-8" d="M216.4,51.62c.21,1.63.36,3.27.3,4.91-.02.4-.05.8-.09,1.2,0,.06-.07.28,0,.05.08-.26,0,.06-.02.13-.03.21-.07.42-.11.63-.1.48-.27.97-.29,1.46-.04.96.72,1.88,1.63,2.1.49.12.99.06,1.49.05.45-.02.9-.03,1.36-.05.85-.03,1.7-.06,2.54-.09s1.61-.17,2.15-.87c.49-.63.54-1.35.44-2.1-.11-.84-.41-1.59-.8-2.34-.17-.33-.35-.65-.53-.97-.08-.15-.17-.31-.24-.46-.04-.08-.07-.16-.11-.23-.17-.32.1.3.02.06-.06-.18-.13-.36-.18-.55-.02-.07-.03-.13-.04-.2-.06-.23,0,.38,0,0,0-.46,0-.92.02-1.39.09-1.47-1.78-2.55-3.01-1.73-1.12.75-1.74,1.86-1.92,3.18-.07.55-.07,1.07,0,1.62.05.39.11.77.16,1.16.01.08.02.16.03.24l-.03-.22c.05.14.03.33.04.47.07,1.04.87,2.05,2,2,1.03-.05,2.07-.88,2-2-.03-.55-.12-1.09-.2-1.63-.01-.08-.06-.23-.05-.31-.03.12.03.33.01.06-.02-.23-.04-.46-.04-.69,0-.08.01-.16.01-.24,0-.25-.09.4-.02.17.04-.16.09-.32.13-.47.06-.22-.19.33-.06.15.04-.06.09-.14.12-.2.1-.18-.26.24-.09.13.1-.07.37-.25-.08.05l-3.01-1.73c-.05.85-.05,1.68.13,2.52.14.67.45,1.31.76,1.91.26.5.56.98.8,1.49.04.08.07.15.11.23-.11-.26-.13-.33-.08-.19.05.14.1.27.14.42.03.11.04.25.08.37-.04-.33-.05-.38-.03-.16,0,.09,0,.17,0,.26l.27-1.01-.06.11.72-.72-.11.06,1.01-.27c-.88.09-1.79.07-2.67.1-.45.02-.9.03-1.36.05-.23,0-.45.02-.68.02h-.34c-.28.01-.23.03.15.05l.88.51-.06-.07.59,1.41c-.08.44-.09.52-.02.23.03-.1.05-.21.08-.31.04-.16.07-.31.1-.47.1-.49.16-.99.23-1.48.09-.69.13-1.39.14-2.08.01-1.46-.13-2.91-.31-4.35-.07-.55-.18-1-.59-1.41-.35-.35-.92-.61-1.41-.59-.97.04-2.14.89-2,2h0Z"/>
      </g>
    </g>
    <rect class="cls-4" x="198.92" y="49" width="34" height="13"/>
  </g>
  <g>
    <g>
      <g>
        <path class="cls-6" d="M100.48,78.34c.51,2.12.94,4.27,1.28,6.43.18,1.13.25,1.73.39,2.88.17,1.44.64,2.8,2.15,3.31,1,.34,2.24.26,3.29.27.58,0,1.19.04,1.75-.12.99-.27,1.63-1.19,1.67-2.19s-.6-2.14-.97-3.07c-.4-1.02-.82-2.04-1.26-3.05-.91-2.1-1.96-4.14-3.29-6.01-.5-.7-1.37-1.21-2.26-.92s-1.38,1.01-1.47,1.93.2,1.78.42,2.64c.2.76.4,1.53.6,2.29.41,1.56.83,3.13,1.24,4.69.27,1.01,1.44,1.73,2.46,1.4s1.68-1.38,1.4-2.46c-.39-1.49-.79-2.98-1.18-4.47-.19-.73-.38-1.45-.58-2.18-.1-.36-.19-.72-.29-1.08-.04-.17-.1-.34-.12-.52.04.33.04-.26.04-.3l-3.73,1.01c1.17,1.65,2.12,3.43,2.95,5.26.1.22.2.44.29.66.05.13.11.25.16.38-.07-.16-.05-.13.04.09.18.44.36.89.54,1.34s.35.89.52,1.34c.1.26.2.51.29.77.05.13.1.26.15.38.1.35.11.18.05-.51l.51-.88-.08.1.88-.51c.16-.07.24,0-.02.01-.18,0-.36,0-.53,0-.29,0-.57,0-.86-.01-.32,0-.64-.02-.96-.03-.14,0-.28-.01-.43-.02-.22-.01-.17-.07-.02,0l.43.26c.08.07.14.15.18.25.05.12.06.12.02.01-.01-.05-.03-.11-.03-.16-.08-.28.03.38,0,.02-.01-.15-.03-.29-.05-.44-.09-.77-.19-1.53-.3-2.29-.36-2.53-.85-5.04-1.45-7.53-.25-1.02-1.45-1.72-2.46-1.4-1.06.34-1.66,1.37-1.4,2.46h0Z"/>
        <path class="cls-6" d="M102.93,107.72c-.04,1.28-.11,2.57-.6,3.78-.53,1.31-1.27,2.57-1.9,3.84-.67,1.34-1.39,2.67-2.01,4.04-.37.82-.47,1.71,0,2.52.44.75,1.25,1.07,2.03,1.35,2.87,1.03,5.76,2.03,8.63,3.04.72.25,1.39.55,2.17.41.91-.16,1.51-.79,1.88-1.6.63-1.36.91-2.75,1.08-4.24.33-2.9.41-5.85.52-8.77.05-1.45.46-3.36-.9-4.34-1.17-.84-3.1-.96-4.49-1.12s-3.4-.49-4.28.98c-.36.6-.32,1.27-.43,1.93-.1.62-.46,1.08-.82,1.59-1.56,2.23-2.79,4.67-3.63,7.27-.23.73-.41,1.48-.21,2.24.27.98,1.15,1.71,2.17,1.75,1.68.07,2.95-1.59,3.77-2.86,1.67-2.57,2.59-5.56,4.42-8.05l-3.66-.48c.51,1.53.12,3.04-.4,4.52-.59,1.71-1.34,3.35-1.61,5.15-.21,1.37.86,3.01,2.46,2.46,3.17-1.1,4.23-4.41,5.18-7.32l-3.86-1.06c-.41,1.88-.83,3.76-1.24,5.64-.23,1.05.32,2.16,1.4,2.46,1,.28,2.23-.34,2.46-1.4.41-1.88.83-3.76,1.24-5.64.55-2.52-3.06-3.52-3.86-1.06-.33,1.01-.64,2.03-1.11,2.98-.31.62-.73,1.36-1.27,1.54l2.46,2.46c.6-4.01,3.4-7.6,2-11.8-.58-1.73-2.64-1.86-3.66-.48-1.12,1.52-1.92,3.23-2.74,4.92-.39.8-.78,1.61-1.23,2.38-.23.41-.48.84-.77,1.21-.07.09-.15.17-.23.25-.1.1-.2.2-.3.3-.28.23-.1.19.54-.14l1.01.27-.14-.08.72.72c.24.35.01.99.21.44.08-.23.15-.47.23-.7.15-.44.31-.88.48-1.3.39-.95.88-1.87,1.4-2.75s1.16-1.68,1.68-2.56c.28-.46.53-.99.67-1.52.1-.37.14-.78.18-1.15.03-.26.18-.54-.05-.19l-.72.72.14-.06-1.01.27c1.66-.1,3.56.19,5.12.75l-.88-.51.14.11-.51-.88c0-.3-.01-.25-.02.14v.33c-.02.33-.03.66-.05.99-.02.66-.05,1.32-.08,1.99-.05,1.27-.11,2.54-.19,3.8s-.13,2.43-.28,3.64c-.06.5-.16.99-.29,1.47-.06.23-.13.46-.22.69-.07.16-.43.54-.13.3l1.41-.59c.24-.02-.07-.03-.2-.08-.21-.08-.43-.15-.64-.23-.43-.15-.85-.3-1.28-.45-.91-.32-1.81-.64-2.72-.96-.85-.3-1.71-.6-2.56-.9-.43-.15-.85-.3-1.28-.45-.21-.08-.43-.15-.64-.23l-.32-.11c-.29-.11-.22-.06.21.14l.51.88.02.14-.27,1.01c.99-2.28,2.22-4.49,3.34-6.72.53-1.06,1.07-2.13,1.35-3.29.29-1.23.38-2.51.42-3.78.08-2.57-3.92-2.57-4,0h0Z"/>
        <path class="cls-6" d="M90.13,133.71c-1.08,1.81-2.78,3.18-4.31,4.6-1.75,1.63-3.52,3.24-5.29,4.84-1.5,1.35.08,3.88,1.95,3.34,4.61-1.34,7.99-4.69,11.79-7.41l-2.74-2.74c-2.59,3.49-5.71,6.57-8.79,9.62-1.61,1.6.45,4.29,2.42,3.14,4.77-2.77,9.19-6.13,13.14-9.97l-2.83-2.83c-2.78,3.11-5.69,6.1-8.6,9.1-1.58,1.62.43,4.28,2.42,3.14,3.54-2.02,6.21-5.7,10.14-7.01l-2.26-2.94c-.73,1.03-1.77,1.83-2.79,2.57-1.28.94-2.54,1.88-3.8,2.85-2.58,1.99-5.11,4.04-7.64,6.1-1.74,1.42.61,4.51,2.42,3.14,4.25-3.2,9.19-5.37,13.1-9.03l-2.83-2.83c-2.73,3.15-5.82,5.94-9.26,8.28l2.02,3.45c4.4-3.31,9.66-5.24,12.98-9.84,1.32-1.83-1.67-4.16-3.14-2.42-2.87,3.39-5.95,6.66-9.55,9.27l2.02,3.45c4.24-3.25,8.82-6.17,12.3-10.28l-3.14-2.42c-3.47,4.54-7.77,8.45-12.57,11.55l2.42,3.14c4.76-3.73,9.52-7.47,14.28-11.2l-3.14-2.42c-3.3,4.46-7.44,8.25-12.13,11.19l2.42,3.14c1.89-1.59,4.1-2.75,6.06-4.27s3.62-3.14,5.15-5l-3.34-1.95c-.33,2.13-1.72,4.16-2.8,5.99s-2.39,3.7-3.93,5.3l2.83,2.83c1.99-2.28,3.99-4.57,5.98-6.85,1.78-2.04,3.67-4.05,4.92-6.47s-1.95-4.06-3.45-2.02c-2.74,3.71-5.91,7.1-9.41,10.11-1.46,1.26-4.48,2.88-3.1,5.25,1.31,2.24,4.37,1.19,5.86-.2s-.05-3.9-1.95-3.34c-1.53.45-3.1.6-4.68.33-1.06-.18-2.15.28-2.46,1.4-.26.96.33,2.28,1.4,2.46,2.3.39,4.56.32,6.81-.33l-1.95-3.34c-.1.14-.24.24-.41.3-.39.07-.21.17.52.31l.51.88-.06-.23v1.06l.07-.24-.51.88c.85-1.06,2.23-1.86,3.26-2.76,1.2-1.05,2.36-2.15,3.47-3.29,2.21-2.25,4.22-4.68,6.09-7.22l-3.45-2.02c-1.16,2.27-2.94,4.11-4.6,6.01-1.89,2.17-3.78,4.33-5.68,6.5-1.68,1.92,1.02,4.7,2.83,2.83s3.26-3.92,4.55-6.11,2.83-4.49,3.21-6.94c.14-.89-.09-1.77-.92-2.26-.72-.42-1.87-.36-2.42.31-1.49,1.8-3.16,3.48-5.03,4.9-2.02,1.52-4.23,2.74-6.18,4.37-1.75,1.46.52,4.34,2.42,3.14,5.3-3.33,9.85-7.6,13.57-12.63.59-.79.21-2.04-.52-2.58-.86-.64-1.82-.48-2.63.16-4.76,3.73-9.52,7.47-14.28,11.2-1.79,1.4.53,4.36,2.42,3.14,5.42-3.5,10.09-7.87,14-12.99,1.37-1.79-1.68-4.15-3.14-2.42-3.27,3.86-7.51,6.6-11.49,9.66-.86.66-1.31,1.72-.72,2.74.5.86,1.86,1.35,2.74.72,3.9-2.83,7.26-6.23,10.36-9.9l-3.14-2.42c-2.82,3.9-7.8,5.59-11.55,8.4-.86.65-1.31,1.73-.72,2.74.52.88,1.84,1.33,2.74.72,3.73-2.54,7.12-5.51,10.07-8.91,1.68-1.93-.93-4.6-2.83-2.83-3.65,3.41-8.32,5.42-12.29,8.41l2.42,3.14c2.62-2.13,5.24-4.27,7.93-6.32,2.44-1.86,5.12-3.47,6.92-6.01,1-1.42-.66-3.47-2.26-2.94-4.39,1.46-7.18,5.18-11.1,7.41l2.42,3.14c2.91-2.99,5.81-5.99,8.6-9.1,1.71-1.91-.97-4.64-2.83-2.83-3.73,3.62-7.85,6.73-12.33,9.35l2.42,3.14c3.33-3.31,6.61-6.65,9.41-10.43,1.18-1.59-1.15-3.87-2.74-2.74-3.46,2.48-6.65,5.8-10.84,7.01l1.95,3.34c1.89-1.7,3.77-3.42,5.63-5.15,1.68-1.57,3.41-3.1,4.6-5.09,1.32-2.22-2.14-4.23-3.45-2.02h0Z"/>
        <path class="cls-6" d="M29.73,143.03c4.94,5.87,11.41,10.04,18.68,12.45,1.52.5,3.41.63,4.84,1.31,2.06.98,2.01,2.24,2.53,4.5.96,4.18,1.3,8.52,2.43,12.65l3.86-5.06c-7.85-.49-17.68-1.76-24.57-5.91l1.84,2.39c-1.07-3.02-2.45-11.24-.88-14.18l-6.28.81c3.12,3.49.37,15.02,7.72,15.02,2.61,0,4.47-2.42,5.37-4.58,1.17-2.81,0-5.15.37-7.86l-2.79,2.79.74-.12-3.89-1.03c1.75,1.36.56,6.76,1.32,9s2.34,4.35,4.86,4.42,4.1-1.74,5.08-3.84c.55-1.19.81-2.41,1.02-3.7.12-.83.22-1.66.29-2.49.55-2.01-.38-2.06-2.8-.17l-2.39-1.84c.4.83-.43,4.54-.19,5.98.36,2.12,1.22,3.62,2.53,5.29,1.54,1.96,5.24,1.32,6.28-.81,1.34-2.73,2.24-5.5,3.01-8.45l-7.86-1.06c.36,2.76.42,5.41.16,8.18-.47,5.12,7.53,5.09,8,0,.25-2.78.2-5.42-.16-8.18-.55-4.14-6.62-5.82-7.86-1.06-.59,2.26-1.17,4.43-2.2,6.54l6.28-.81c-1.54-1.96.39-6.39-.72-8.82-.79-1.72-2.18-2.87-4.15-2.9s-3.91,1.3-4.86,2.95c-.66,1.15-1.98,7.62-.54,7.35l3.89,1.03c-.9-.81-.28-4.14-.36-5.24-.11-1.56-.35-3.12-1.04-4.54-1.37-2.82-3.56-3.89-6.58-3.38-1.2.2-2.62,1.56-2.79,2.79-.14.98.41,6.91-.05,7.11h4.04c-.5-.34-.53-5.86-.8-7.04-.56-2.45-1.62-4.32-3.29-6.19s-5.12-1.38-6.28.81c-2.12,3.98-1.41,8.8-1.07,13.17.29,3.73.2,8.05,3.84,10.08,8.06,4.49,18.69,5.92,27.74,6.48,2.63.16,4.51-2.68,3.86-5.06-1.82-6.65-.7-18.16-7.87-21.76-3.62-1.82-7.85-2.1-11.54-3.9-4.35-2.13-8.01-5.07-11.13-8.77-3.32-3.94-8.95,1.74-5.66,5.66h0Z"/>
      </g>
      <g>
        <path class="cls-8" d="M95.34,64.58c1.06,3.27,3.16,6.07,4.17,9.36.17.55.95.43.98-.13.08-1.68-.18-3.35-.8-4.92-.21-.53-.93-.44-.98.13-.07.75.11,1.45.51,2.09.29.46,1.14.16.91-.39-.38-.92-.83-1.79-1.37-2.61-.29-.44-.88-.23-.93.25-.06.56.16,1.01.43,1.48.33.57.69,1.14,1.04,1.71.69,1.14,1.38,2.27,2.07,3.41l.79-.61c-.65-.6-1.25-1.25-1.81-1.94-.23-.28-.78-.13-.84.22-.18,1.08-.13,2.14.21,3.19.15.46.83.49.96,0,.2-.71.4-1.43.6-2.14l-.98-.13c.03.56.05,1.13.08,1.69.01.32.31.57.63.48.67-.19,1.2-.6,1.53-1.21.26-.48-.4-1.05-.79-.61l-.94,1.08c-.34.39,0,.91.49.84.46-.07.86-.22,1.27-.45l-.61-.79-1.31,1.05.61-.08c-.28-.18-.49-.4-.63-.71-.21-.5-.95-.46-.98.13-.05.93.53,1.82,1.41,2.14,1.1.41,1.93-.4,2.95-.63l-.27-.96c-1.03.39-2.02.88-2.95,1.48-.45.29-.17,1.13.39.91.52-.21,1.04-.42,1.56-.62.45-.18,1.06-.31,1.45-.62.74-.58-.11-1.66-.4-2.26s-1.15-.07-.86.5c.16.32.57.88.57,1.23l.15-.35c-.27.33-1,.47-1.39.62-.45.18-.89.36-1.34.54l.39.91c.86-.55,1.76-1.01,2.71-1.38.59-.23.37-1.11-.27-.96s-1.18.61-1.81.71c-.74.12-1.32-.54-1.28-1.25l-.98.13c.24.56.56.98,1.09,1.31.2.13.43.06.61-.08l1.31-1.05c.45-.36-.13-1.06-.61-.79-.33.19-.66.29-1.03.35l.49.84.94-1.08-.79-.61c-.21.39-.5.63-.93.75l.63.48c-.03-.56-.05-1.13-.08-1.69s-.82-.69-.98-.13c-.2.71-.4,1.43-.6,2.14h.96c-.28-.87-.36-1.75-.21-2.65l-.84.22c.56.69,1.16,1.33,1.81,1.94.41.38,1.09-.11.79-.61-.6-.99-1.21-1.99-1.81-2.98-.3-.5-.6-.99-.91-1.49s-.75-1.02-.68-1.62l-.93.25c.5.75.93,1.54,1.27,2.38l.91-.39c-.31-.5-.42-1-.37-1.58l-.98.13c.58,1.49.84,3.05.76,4.65l.98-.13c-1.01-3.29-3.11-6.09-4.17-9.36-.2-.61-1.16-.35-.96.27h0Z"/>
        <path class="cls-8" d="M101.99,76.29c.85-.12,1.69-.88,1.31-1.8-.18-.44-.61-.78-.92-1.14-.37-.43-.73-.87-1.07-1.33-1.33-1.77-2.48-3.67-3.79-5.46l-.79.61c1.38,1.76,2.76,3.52,4.13,5.28.66.84,1.35,1.67,1.88,2.6.03.05.06.11.09.16.04.1.05.11.04.04.04-.08-.19.04-.21.04-.24.1-.48.18-.71.29-.5.22-.98.48-1.44.77l.68.18c-.73-1.51-1.43-3.03-2.07-4.58-.24-.59-1.21-.33-.96.27.68,1.63,1.4,3.23,2.17,4.82.12.24.47.31.68.18.53-.33,1.08-.63,1.66-.86.43-.17.97-.3,1.16-.77s-.16-.95-.4-1.34c-.33-.52-.7-1.02-1.08-1.5-1.63-2.09-3.27-4.18-4.9-6.27-.35-.44-1.12.15-.79.61,1.07,1.46,2.04,2.99,3.08,4.47.49.7,1,1.39,1.55,2.05.3.36.62.7.92,1.05.38.44-.03.62-.47.68-.63.09-.36,1.05.27.96h0Z"/>
      </g>
      <g>
        <g>
          <path class="cls-8" d="M106.08,95.91c.17-.03.33-.06.5-.08-.02,0,.67-.1.42-.06-.22.03.26-.03.3-.03.21-.02.42-.05.63-.06.76-.07,1.52-.11,2.29-.12l-2.16-1.24c.07.14.13.28.2.42-.1-.24-.1-.23.01.04.08.22.16.43.23.65.17.51.31,1.03.42,1.55.1.45.19.91.26,1.36.02.15.05.31.07.46-.04-.28-.04-.27,0,.03.03.23.05.46.08.69.23,2.22.38,4.45.57,6.67l2.5-2.5c-2.45-.22-4.89-.48-7.32-.78l2.41,1.84c.1.69.09-.77.02-.08.03-.32.12-.63.18-.94.14-.7.25-1.41.3-2.13.1-1.34-.07-2.71-.38-4.01-.03-.12-.06-.24-.09-.36.04.14.02.28-.04.42-.18.48-.55.81-1.1.97-.74.18-1.3-.02-1.69-.59.31.37-.07-.36.05.11.08.31.19.61.28.91.37,1.21.74,2.42,1.11,3.63s1.77,2.17,3.08,1.75,2.16-1.74,1.75-3.08c-.5-1.62-.9-3.32-1.52-4.9-.47-1.21-1.24-2.15-2.5-2.6s-2.78.07-3.61,1.14-.89,2.21-.66,3.45c.08.45.21.89.29,1.34-.06-.36,0,.05.02.2.02.21.03.42.03.62,0,.42-.02.83-.05,1.25.03-.42-.02.11-.03.2-.04.2-.08.39-.12.59-.24,1.2-.32,2.24-.15,3.45s1.41,1.71,2.41,1.84c2.44.29,4.88.55,7.32.78,1.27.12,2.6-1.24,2.5-2.5-.4-4.83-.38-9.96-2.53-14.4-.37-.76-1.34-1.25-2.16-1.24-1.84.04-3.66.24-5.47.55-1.29.22-2.13,1.88-1.75,3.08.45,1.39,1.69,1.98,3.08,1.75h0Z"/>
          <path class="cls-8" d="M103.17,107.23l.21.02.13-.98c-.27.02-.52.02-.78-.03-.46-.09-.74.33-.56.73.2.47.67.63,1.13.73.68.16,1.37.3,2.05.43,1.45.29,2.9.54,4.36.76s2.78.39,4.18.53c.42.04.95.12,1.1-.41.06-.21-.02-.45-.15-.61-.14-.17-.4-.26-.15-.46.5-.41-.21-1.11-.71-.71-.29.24-.43.6-.4.98.01.17.06.34.15.49.05.09.29.28.29.32l.13-.49-.07.09.35-.15c-.93.03-1.93-.2-2.85-.32-1-.13-1.99-.28-2.98-.44s-1.91-.33-2.87-.52c-.46-.09-.91-.18-1.37-.28-.33-.07-1.18-.11-1.32-.45l-.56.73c.35.07.69.1,1.05.06.56-.05.68-.79.13-.98-.26-.09-.48-.09-.74-.02-.62.16-.36,1.12.27.96h0Z"/>
          <path class="cls-8" d="M103.35,91.88c2.76-.3,5.52-.57,8.29-.82.64-.06.64-1.06,0-1-2.77.24-5.53.52-8.29.82-.63.07-.64,1.07,0,1h0Z"/>
        </g>
        <path class="cls-8" d="M103.63,92.09c2.71.2,5.44-.06,8.07-.75.62-.16.36-1.12-.27-.96-.37.09-.74.18-1.1.27-.62.15-.36,1.12.27.96.37-.09.74-.18,1.1-.27l-.27-.96c-2.55.67-5.17.91-7.8.71-.64-.05-.64.95,0,1h0Z"/>
      </g>
      <g>
        <path class="cls-8" d="M96.66,129.05c1.03,3.81,4.4,5.11,7.01,7.61l-1.16-1.99.05.35v-2.39c-.4,1.75-1.1,3.49-1.73,5.17l7.52-1.99c-2.65-3.08-6.03-5-9.22-7.42l1.61,1.61-.24-.43.45,3.47.12-.5-1.16,1.99c.84-1.01,2.2-2.72,3.19-3.43l-2.27.61.38.04-2.27-.61c.41.29.87.8,1.25,1.12,4.35,3.79,10.74-2.55,6.36-6.36-2.24-1.96-4.85-4.35-7.99-2.58-1.14.64-2.02,1.74-2.93,2.66-1.09,1.1-2.38,2.18-3.01,3.62-1.5,3.41.72,5.76,3.37,7.51,2.22,1.47,4.24,3.02,5.98,5.05,2.4,2.8,6.44.91,7.52-1.99.95-2.53,2.62-5.76,1.45-8.44-.65-1.5-1.95-2.29-3.23-3.23-.47-.35-.93-.7-1.38-1.07-.28-.24-1.18-1.38-1.02-.79-1.51-5.59-10.19-3.22-8.68,2.39h0Z"/>
        <path class="cls-8" d="M97.89,124.31c2.48.88,4.97,1.7,7.48,2.46,1.24.37,2.48.73,3.72,1.08.28.08.67.27.96.26.4.16.31-.03-.3-.57,0,.17,0,.33,0,.5,0,.5.07,1.19-.08,1.63l.39-.66-.08.1.66-.39-.12.04h.8l-.14-.05.66.39c-1.17-1.09-2.11-2.31-3.76-2.69-.79-.18-1.62.24-1.85,1.05-.21.75.25,1.67,1.05,1.85.75.17,1.26.67,1.78,1.22.4.42.74.89,1.32,1.08s1.26.07,1.72-.38c.8-.77.65-2.17.66-3.19.01-1.33-.39-2.33-1.73-2.77-2.03-.67-4.13-1.16-6.18-1.8s-4.13-1.33-6.17-2.05c-.76-.27-1.64.31-1.85,1.05-.23.83.28,1.57,1.05,1.85h0Z"/>
        <path class="cls-8" d="M90.3,134.67c.9,1.55,2.36,2.52,3.83,3.47,1.57,1.02,3.07,2.14,4.53,3.31s3.01,2.55,4.59,3.7c.81.59,1.83.83,2.73.28.44-.27.76-.72.91-1.21.05-.17.08-.33.11-.5,0-.04.08-.46.02-.32.32-.74.22-1.61-.54-2.05-.63-.37-1.73-.21-2.05.54-.14.32-.25.61-.31.95-.01.07-.09.4-.07.43l1.08-.46-.19-.12c-.43-.52-1.19-.95-1.71-1.38-1.22-1-2.44-2-3.68-2.96s-2.49-1.89-3.81-2.74c-1.06-.69-2.2-1.34-2.85-2.46-.97-1.67-3.56-.16-2.59,1.51h0Z"/>
      </g>
      <g>
        <path class="cls-8" d="M60.68,157.23c1.27,4.01,2.32,8.11,2.87,12.28.38,2.87,2.46,6.47,6,6s8.71-1.79,11.75-3.91c1.62-1.13,3.21-3.02,2.97-5.18-.56-5-3.52-10.17-5.4-14.83-1.53-3.79-5.02-5.39-8.81-3.59-1.35.64-2.77.94-4.23,1.19l4.62,10.97c1.6-.92,4.09-.42,5.9-.92,2.24-.62,4.26-2,5.82-3.7l-9.42-1.21c1.94,2.53,5.37,5.64,6.13,8.79v-3.19l-.16.66,2.76-3.59c-1.66,1.02-3.33,1.33-4.64,3.51-3.99,6.63,6.38,12.67,10.36,6.06l.36-.59-3.59,2.76c4.17-1.48,7.78-4.02,6.4-9.17-1.15-4.3-4.61-7.86-7.25-11.3-2.22-2.89-6.54-4.36-9.42-1.21-.9.98-1.54.73-3.29.91-2.18.23-4.08.73-6,1.83-6.23,3.58-1.79,12.06,4.62,10.97,2.53-.43,4.78-1.3,7.1-2.4-2.94-1.2-5.88-2.39-8.81-3.59.85,2.12,1.71,4.24,2.56,6.36.34.85.68,1.7,1.02,2.54.13.32,1.35,2.47,1.38,2.74l2.97-5.18c-1.16.81-4.37,2.1-5.69,2.28l6,6c-.69-5.27-1.69-10.4-3.29-15.47-2.32-7.34-13.91-4.2-11.57,3.19h0Z"/>
        <path class="cls-8" d="M78.22,148.26c1.97,2.32,3.93,4.66,5.87,7,.94,1.13,1.87,2.27,2.8,3.41.47.57.93,1.14,1.39,1.71.27.33.53.65.79.98.13.16.26.33.4.49-.11-.16-.11-.14,0,.07l-.34-1.26v.18c.11-.42.23-.84.34-1.26.47-.46.51-.54.11-.24-.17.12-.34.24-.52.36-.34.24-.69.48-1.03.72-1.11.77-1.62,2.19-.9,3.42.64,1.09,2.31,1.67,3.42.9.88-.61,1.86-1.18,2.65-1.9,1.09-.99,1.15-2.58.38-3.78-.61-.96-1.46-1.83-2.18-2.71-.63-.77-1.26-1.55-1.89-2.32-2.57-3.12-5.16-6.23-7.77-9.31-.87-1.03-2.64-.9-3.54,0-1.02,1.02-.88,2.5,0,3.54h0Z"/>
        <path class="cls-8" d="M81.68,144.86c-.3-.57-.7-1.09-1.17-1.51-.19-.17-.45-.2-.66-.04-.19.14-.27.44-.13.65.18.28.4.52.65.74.21.18.44.35.62.57.08.09.24.15.35.15.12,0,.27-.05.35-.15s.15-.22.15-.35c0-.14-.06-.25-.15-.35-.15-.19-.34-.34-.53-.5s-.38-.33-.53-.53l.08.1c-.05-.06-.09-.12-.13-.19l-.79.61c.22.2.43.42.61.66l-.08-.1c.18.24.35.49.48.76.12.23.46.32.68.18.24-.15.31-.44.18-.68h0Z"/>
        <path class="cls-8" d="M58.95,150.37c.67,2.28,1.31,4.57,1.92,6.86.17.62,1.13.36.96-.27-.62-2.29-1.26-4.58-1.92-6.86-.18-.62-1.15-.35-.96.27h0Z"/>
        <path class="cls-8" d="M59.79,150.77c.59.09,1.17.21,1.74.36v-.96c-.4.12-.81.23-1.19.37-.29.11-.46.34-.47.66,0,.21.03.45.1.65.08.23.22.44.45.53s.49.08.71-.05c.47-.27.47-.8.4-1.27-.03-.17-.2-.31-.35-.35-.19-.05-.34.01-.49.13-.28.23-.36.63-.33.97.02.37.07.74.11,1.11.02.21.14.43.37.48.21.05.46-.03.56-.23.24-.47.44-.98.74-1.42.03-.05.04-.06.02-.02l.03-.04s.15-.14.07-.08c.09-.07.19-.12.28-.17.13-.07-.08.03.06-.02.06-.02.12-.04.18-.06.11-.03.22-.06.32-.09.25-.07.43-.36.35-.62s-.34-.42-.62-.35c-.53.14-1.08.33-1.43.76-.19.23-.32.49-.45.75-.14.29-.29.57-.43.86l.93.25c-.03-.33-.07-.65-.1-.98-.01-.12-.01-.23-.01-.35,0-.03,0-.03,0,0,0,.03,0,.03,0,0,0,0,.03-.1,0-.04-.03.08.04-.06,0,0-.03.05.03-.03.04-.03l-.84-.22c.02.11,0-.02,0,.08,0,0,0,.16,0,.08,0,.07-.01.04.03-.02-.05.06,0,0,.05-.02.1-.02.14.04.23.07l.03.04s-.03-.05-.01-.02c.02.06-.02-.08-.02-.09-.01-.06-.01-.07-.02-.1,0-.04,0-.11,0-.15-.28.25-.34.34-.17.28l.06-.02.35-.11.69-.21c.46-.14.49-.83,0-.96-.57-.16-1.15-.28-1.74-.36-.26-.04-.55.06-.62.35-.05.24.07.57.35.62h0Z"/>
        <path class="cls-8" d="M66.91,176.3c-.64-2.05-1.15-4.13-1.53-6.24-.05-.27-.37-.42-.62-.35-.28.08-.4.35-.35.62.38,2.11.89,4.19,1.53,6.24.19.61,1.16.35.96-.27h0Z"/>
        <path class="cls-8" d="M63.45,168.35c.35,2.47.52,4.96.52,7.45,0,.32.32.57.63.48.59-.16.73-.85.82-1.38.11-.62.13-1.26.14-1.89h-1c.03.97.02,1.94-.02,2.91-.01.25.24.52.5.5.43-.04.65-.27.96-.55s.7-.44,1.12-.52l-.39-.91c-.39.21-.69.5-.94.86-.22.32.07.76.43.75.99-.01,1.98-.15,2.93-.42.62-.18.36-1.14-.27-.96-.87.25-1.76.38-2.67.39l.43.75c.15-.22.35-.37.58-.5.53-.28.15-1.02-.39-.91-.37.07-.73.21-1.05.4-.14.09-.28.19-.41.3-.06.05-.27.33-.35.34l.5.5c.04-.97.05-1.94.02-2.91-.02-.64-.99-.65-1,0,0,.42,0,.85-.05,1.27-.02.19-.05.38-.09.56-.03.11-.06.23-.09.34-.01.04-.03.08-.04.12-.04.07-.02.08.05,0l.63.48c0-2.58-.2-5.16-.56-7.72-.04-.27-.38-.41-.62-.35-.29.08-.39.35-.35.62h0Z"/>
        <path class="cls-8" d="M61.35,155.83c-.81-1.85-1.37-3.79-1.94-5.73-.18-.62-1.15-.35-.96.27.59,2.02,1.2,4.03,2.04,5.96.11.25.47.3.68.18.26-.15.29-.44.18-.68h0Z"/>
        <path class="cls-8" d="M59.88,154.6c.3.96.52,1.95.9,2.89.1.24.34.44.62.35.23-.08.45-.36.35-.62-.38-.94-.6-1.93-.9-2.89-.08-.25-.35-.43-.62-.35s-.43.35-.35.62h0Z"/>
      </g>
      <path class="cls-4" d="M21.92,157c2.82,12.39,27.39,22.88,47,19,30.05-5.95,52.16-46.39,45-79-4.5-20.53-20.07-35.55-21-35-.61.36,5.06,7.52,8,19,1.56,6.07,6.48,29.45-8,49-2.16,2.92-15.41,20.81-33,20-22.92-1.06-38.88-33.21-42-31-1.7,1.2,4.76,9.51,5,24,.14,8.35-1.93,9.9-1,14Z"/>
    </g>
    <g>
      <g>
        <rect class="cls-9" x="2.42" y="73.5" width="31" height="307"/>
        <path class="cls-5" d="M31.92,75v304H3.92V75h28M34.92,72H.92v310h34V72h0Z"/>
      </g>
      <g>
        <line class="cls-3" x1="11.42" y1="135.5" x2="11.42" y2="152"/>
        <path class="cls-6" d="M6.54,142.59c2.09-.07,4.48-.79,4.58-3.27h-5c.04,1.94.1,3.89.19,5.83.04.94.09,1.87.15,2.81.07,1.2.03,2.48.68,3.54.68,1.12,2.27,1.64,3.42.9s1.62-2.22.9-3.42c.11.35.13.39.06.13l.04.32c-.09-.13-.04-.55-.05-.71-.03-.43-.05-.86-.08-1.29-.05-.9-.1-1.8-.13-2.7-.08-1.8-.14-3.6-.17-5.4-.03-1.31-1.13-2.56-2.5-2.5s-2.44,1.1-2.5,2.5v.12c.11-.42.22-.84.34-1.26l.65-.61.35-.14s-.45.12-.48.13c-.06.01-.5.11-.16.04.35-.08-.23,0-.27,0-1.31.04-2.56,1.12-2.5,2.5s1.1,2.54,2.5,2.5h0Z"/>
        <g>
          <path class="cls-8" d="M25.15,134.97c.1,1-.29,3.15.09,4-.21.93.05.85.76-.23-.54.22-1.08.45-1.6.71l6.02,3.45c-.06-2.19-.08-4.38-.06-6.58.03-2.79-2.57-4.31-5.06-3.86-2.1.38-3.94,1.44-6.05,1.82-2.6.48-5.25.8-7.87,1.2-3.81.58-3.35,5.53-.96,7.31.83.62,1.72.76,2.62,1.17.55.25.61,0,.16-.73.03.69.06,1.38.09,2.06.22,5.13,8.22,5.16,8,0-.09-2.23.18-4.89-1.45-6.66-1.5-1.63-3.78-1.56-5.39-2.76l-.96,7.31c2.62-.4,5.26-.72,7.87-1.2,2.1-.39,3.95-1.44,6.05-1.82l-5.06-3.86c-.03,2.19,0,4.38.06,6.58.09,3.22,3.28,4.73,6.02,3.45,2-.93,3.51-1.6,4.27-3.87s.69-5.11.45-7.51c-.51-5.07-8.52-5.13-8,0h0Z"/>
          <path class="cls-8" d="M25.34,134.75c1.18-.03,2.36-.18,3.5-.45.6-.14,1.18-.31,1.74-.57.29-.14.57-.34.79-.57.32-.32.63-.82.7-1.27.09-.55.09-1.04-.2-1.54-.24-.41-.72-.81-1.2-.92-.51-.12-1.09-.09-1.54.2-.41.26-.84.69-.92,1.2-.01.07-.03.12-.05.19l.2-.48c-.03.06-.06.1-.1.16l.31-.4s-.08.09-.13.13l.4-.31c-.1.08-.21.13-.33.18l.48-.2c-.81.32-1.71.48-2.58.6l.53-.07c-.54.07-1.08.11-1.63.13s-1.04.21-1.41.59c-.35.35-.61.92-.59,1.41.05,1.06.88,2.03,2,2h0Z"/>
          <path class="cls-8" d="M28.83,132.99c2.57,0,2.58-4,0-4s-2.58,4,0,4h0Z"/>
        </g>
        <g>
          <path class="cls-6" d="M23.22,131.42c-.04,4.89.1,9.78.41,14.66.08,1.28,2.08,1.29,2,0-.31-4.88-.45-9.77-.41-14.66.01-1.29-1.99-1.29-2,0h0Z"/>
          <g>
            <path class="cls-6" d="M4.31,142.52l.77-.26.33-.11c.26-.08.29-.09.1-.05l-1.01-.27c-.33-.2-.51-.66-.34-.23.08.22.17.44.25.66.14.37.27.73.4,1.1.29.82.59,1.63.84,2.46.49,1.62.52,3.16.67,4.95l1.47-1.93c-1.96.32-3.83,1-5.6,1.9l2.94,1.2c.04.19-.03.32.09,0,.07-.2.14-.41.21-.62.11-.34.21-.68.29-1.03.21-.91.34-1.85.38-2.78.09-1.71-.15-3.48-.67-5.11l-3.66,1.54c1.06,1.52,1.38,3.24,1.78,5.25.2,1.03,1.48,1.71,2.46,1.4,1.09-.35,1.62-1.36,1.4-2.46-.43-2.15-.91-4.38-2.18-6.21-.57-.83-1.53-1.22-2.5-.82-.88.37-1.46,1.4-1.16,2.36.5,1.58.64,2.75.49,4.48,0,.09-.05.49-.01.22-.03.21-.07.43-.11.64-.08.39-.17.77-.28,1.15-.32,1.06-.6,1.93-.39,3.05.25,1.34,1.88,1.74,2.94,1.2,1.39-.71,2.95-1.22,4.64-1.5.8-.13,1.54-1.13,1.47-1.93-.12-1.38-.21-2.76-.41-4.13-.17-1.2-.54-2.32-.94-3.46-.42-1.22-.78-2.6-1.41-3.73-.47-.84-1.27-1.4-2.26-1.37-.7.02-1.4.35-2.05.57-.99.33-1.74,1.39-1.4,2.46.32.98,1.4,1.75,2.46,1.4h0Z"/>
            <path class="cls-6" d="M18.76,133.53c.16,4.76.38,9.53.66,14.28.08,1.28,2.08,1.29,2,0-.28-4.76-.5-9.52-.66-14.28-.04-1.28-2.04-1.29-2,0h0Z"/>
            <path class="cls-6" d="M21.31,148.43c.72-.21,1.45-.37,2.19-.48l-.27.04c.17-.02.34-.04.52-.06.27-.03.51-.09.71-.29.17-.17.3-.46.29-.71s-.1-.53-.29-.71c-.18-.17-.45-.32-.71-.29-1.01.1-2,.28-2.97.57-.24.07-.47.24-.6.46s-.18.53-.1.77c.16.51.69.86,1.23.7h0Z"/>
            <path class="cls-6" d="M20.29,133.84c.87-.21,1.75-.39,2.63-.54l-1.23-.7c.18-.38.15-.45-.08-.21-.11.08-.21.17-.3.27-.15.16-.3.34-.43.51-.3.41-.63.95-.48,1.48.32,1.17,1.95.86,2.85.86.5,0,1.06-.46,1-1-.1-.84-.12-1.67-.08-2.51.06-1.18-1.6-1.28-1.96-.27-.92,2.59-1.78,5.17-2.05,7.92h2l.13-4.48-1.96.27c.46,3.39.42,6.84.39,10.25,0,.94,1.44,1.44,1.86.5,1.43-3.13,1.48-6.57,1.46-9.95,0-1.29-1.98-1.29-2,0-.05,3.07-.09,6.14.26,9.19.06.54.41.99,1,1,.49,0,1.06-.46,1-1-.36-3.05-.31-6.12-.26-9.19h-2c.02,2.98.08,6.17-1.19,8.94l1.86.5c.03-3.61.03-7.2-.46-10.78-.16-1.15-1.93-.82-1.96.27l-.13,4.48c-.04,1.31,1.88,1.26,2,0,.25-2.55,1.13-4.99,1.98-7.39l-1.96-.27c-.04.84-.02,1.67.08,2.51l1-1c-.28,0-.55,0-.83,0-.12,0-.24,0-.35,0-.32-.04-.32.01,0,.17l.26.97c.11-.47.63-.74.94-1.07.38-.4.55-.99.35-1.51s-.65-.8-1.23-.7c-.88.15-1.76.33-2.63.54-1.25.31-.72,2.23.53,1.93h0Z"/>
            <path class="cls-6" d="M30.4,128.43v9.06c.02,1.46.02,2.92.02,4.39,0,1.08.09,2.73,1.67,2.4,1.33-.27,1.29-1.74,1.24-2.79-.06-1.43-.12-2.87-.19-4.3-.13-2.96-.33-5.94-.03-8.9.13-1.28-1.87-1.27-2,0-.24,2.39-.14,4.79-.04,7.18.05,1.19.1,2.39.16,3.58.03.62.05,1.24.08,1.86.01.29.03.57.04.86,0,.2-.05.54.02.71.75.55,1.1.59,1.05.12v-.44c0-.29,0-.58,0-.88v-1.75c0-1.27,0-2.53,0-3.8v-7.31c-.01-1.29-2.01-1.29-2.01,0h0Z"/>
          </g>
          <path class="cls-6" d="M31.22,145.45c.27-1.31.03-2.68.39-3.97.17-.62-.79-.89-.96-.27-.36,1.3-.12,2.66-.39,3.97-.05.26.08.54.35.62.25.07.56-.08.62-.35h0Z"/>
        </g>
        <line class="cls-1" x1="8.42" y1="136.5" x2="8.42" y2="153.5"/>
        <line class="cls-1" x1="19.42" y1="132.5" x2="19.42" y2="149.5"/>
        <path class="cls-8" d="M15.33,136.97c.33-.03.67-.08.99-.18.2-.06.39-.14.59-.22.39-.16.79-.33,1.21-.39l-.4.05s.05,0,.08,0c.21,0,.4-.04.58-.13.19-.06.35-.16.48-.31.26-.26.46-.69.44-1.06s-.14-.79-.44-1.06c-.27-.25-.67-.48-1.06-.44-.34.04-.67.08-.99.18-.2.06-.39.14-.59.22-.39.16-.79.33-1.21.39l.4-.05s-.05,0-.08,0c-.21,0-.4.04-.58.13-.19.06-.35.16-.48.31-.26.26-.46.69-.44,1.06s.14.79.44,1.06c.28.25.67.48,1.06.44h0Z"/>
        <path class="cls-8" d="M8.26,141.38c.1,3.3.08,6.6-.06,9.9-.02.47.29,1.1.74,1.3.54.23.99.32,1.57.19.36-.08.72-.21,1.07-.32.71-.22,1.42-.43,2.13-.65,1.45-.44,2.91-.89,4.36-1.33.72-.22,1.17-.9,1.07-1.65-.11-.78-.72-1.22-1.47-1.3-2.14-.22-4.29-.2-6.44-.17l1.5,1.5c-.16.35-.17.41-.04.17-.06.08-.03.04.09-.11.16-.19.31-.38.47-.56.32-.37.64-.74.98-1.1.71-.76.51-2.29-.66-2.51-.37-.07-.73-.13-1.1-.2-.18-.03-.37-.07-.55-.1l-.18-.03c-.25-.07-.16,0,.28.21l.39.66.03.16-.2.76c.25-.49.7-.81,1.22-.92h-.8l.14.02-.66-.39c-.14-.12-.2-.53-.15-.14.02.16.07.32.11.47.07.28.13.57.2.85.13.57.26,1.14.4,1.71.18.79,1.09,1.26,1.85,1.05.81-.22,1.23-1.05,1.05-1.85-.25-1.09-.45-2.22-.77-3.29-.26-.87-1.03-1.48-1.96-1.36-.56.08-1.12.31-1.6.62-.98.64-2.15,1.82-1.75,3.09.43,1.35,2.1,1.35,3.25,1.56l-.66-2.51c-.46.49-.9,1-1.33,1.52-.52.64-1.14,1.31-1.05,2.2.08.8.63,1.51,1.5,1.5,2.15-.03,4.3-.04,6.44.17l-.4-2.95c-1.3.4-2.6.79-3.9,1.19-.62.19-1.24.38-1.86.57-.34.1-.68.21-1.02.31-.15.05-.31.1-.46.14l-.19.06c-.18.05-.19.05-.03,0l.76.2-.13-.06.74,1.3c.14-3.3.16-6.6.06-9.9-.02-.78-.67-1.54-1.5-1.5s-1.53.66-1.5,1.5h0Z"/>
        <path class="cls-8" d="M18.76,138.54c.65-.52.53-1.5.5-2.23-.03-.92-.09-1.85-.18-2.77-.02-.27-.21-.5-.5-.5-.25,0-.52.23-.5.5.08.83.13,1.66.17,2.49.02.38.04.77.03,1.15,0,.26-.03.48-.23.64-.21.17-.18.53,0,.71.21.21.49.17.71,0h0Z"/>
        <polygon class="cls-4" points="33.7 126.86 1.8 138.99 1.8 156 33.7 144.61 33.7 126.86"/>
      </g>
      <g>
        <path class="cls-8" d="M1.52,116.75c.06.47.03,1.09.59,1.23.24.06.52.03.77.04.26,0,.52.02.79.03,1.03.05,2.06.13,3.09.24.27.03.5-.25.5-.5,0-.29-.23-.47-.5-.5-.77-.08-1.53-.15-2.3-.2-.37-.02-.74-.04-1.11-.05-.18,0-.37-.01-.55-.02-.11,0-.22,0-.32,0-.1,0-.11,0-.16-.02l.22.13c.08.07.05.11.05,0,0-.07-.02-.15-.03-.23l-.05-.41c-.04-.27-.38-.41-.62-.35-.29.08-.39.35-.35.62h0Z"/>
        <path class="cls-8" d="M25.46,118.47c1.17-.07,2.33-.09,3.5-.04.27.01.5-.24.5-.5,0-.28-.23-.49-.5-.5-1.17-.05-2.34-.03-3.5.04-.27.02-.5.22-.5.5,0,.26.23.52.5.5h0Z"/>
        <g>
          <g>
            <path class="cls-6" d="M16.88,118.29c.09.01.18.03.27.02.07,0,.13-.01.2-.03.02,0,.05-.01.07-.02.06-.02.12-.05.18-.07.02,0,.04-.02.06-.03.05-.03.11-.07.15-.11,0,0,0,0,.01-.01.03-.03.06-.07.08-.11,0,0,0,0,0-.01.02-.04.04-.09.06-.13l-.98-.13c0,.1,0,.19,0,.29,0,.07.01.13.04.19.02.06.05.12.1.16.05.05.1.08.16.1.06.03.12.05.19.04l.13-.02c.08-.02.16-.07.22-.13l.08-.1c.05-.08.07-.16.07-.25,0-.1,0-.19,0-.29,0-.07-.01-.13-.04-.19-.02-.06-.05-.12-.1-.16l-.1-.08c-.06-.04-.12-.06-.19-.06-.04-.01-.09-.01-.13,0-.07,0-.13.02-.19.06l-.1.08c-.06.06-.1.14-.13.22h0s.03-.07.05-.11c0,0,0,.02-.02.02l.08-.1s-.02.02-.03.03l.1-.08s-.07.05-.11.06l.12-.05s-.1.03-.15.04l.13-.02c-.05,0-.1,0-.15,0l.13.02s-.01,0-.02,0c-.07-.02-.13-.02-.2,0-.07,0-.13.02-.19.06-.06.03-.11.07-.14.13-.04.05-.07.1-.09.17l-.02.13c0,.09.02.17.07.25l.08.1c.06.06.14.1.22.13h0Z"/>
            <g>
              <path class="cls-6" d="M9.82,117.42c.39.68,1.06,1.03,1.81,1.14.52.08,1.05.15,1.58.18.75.05,1.5.03,2.25-.06.28.01.53-.05.77-.17.25-.08.46-.22.64-.41.35-.35.61-.92.59-1.41s-.19-1.05-.59-1.41c-.37-.34-.9-.64-1.41-.59-1.05.12-2.1.11-3.14-.03l.53.07c-.21-.03-.43-.04-.63-.12l.48.2s-.05-.03-.08-.05l.4.31-.03-.03.31.4-.02-.04c-.25-.43-.72-.79-1.2-.92s-1.12-.07-1.54.2-.8.69-.92,1.2-.07,1.06.2,1.54h0Z"/>
              <path class="cls-6" d="M32,119.6c.5.03.98-.04,1.47-.11.26-.06.49-.18.68-.36.22-.14.39-.33.52-.56.15-.23.23-.48.24-.74.06-.27.05-.53-.04-.8l-.2-.48c-.18-.3-.42-.54-.72-.72l-.48-.2c-.35-.1-.71-.1-1.06,0-.02,0-.04,0-.05,0l.53-.07c-.29.04-.59.05-.88.03-.28-.01-.53.05-.77.17-.25.08-.46.22-.64.41-.2.18-.33.4-.41.64-.13.24-.18.5-.17.77l.07.53c.1.34.27.63.51.88l.4.31c.31.18.65.27,1.01.27h0Z"/>
              <path class="cls-6" d="M32.19,102.09c.17.01.35.02.53.02.16,0,.33-.02.49,0l-.13-.02s.05,0,.07.02l-.12-.05s.04.02.06.04l-.1-.08s.02.02.03.03l-.08-.1s.04.06.06.1l-.05-.12c.11.27.17.56.21.85.02.15.16.27.29.32.15.06.3.05.44-.03.41-.21.32-.75.32-1.13,0-.26-.23-.51-.5-.5s-.5.22-.5.5c0,.19.02.38,0,.57l.02-.13s0,.04-.01.06l.05-.12s0,.02-.02.03l.08-.1s-.02.02-.03.03l.1-.08h-.02c.24.11.49.21.73.31-.03-.2-.07-.4-.13-.59-.08-.27-.17-.55-.42-.7-.23-.14-.48-.11-.73-.1-.22,0-.43,0-.65-.02-.12,0-.27.06-.35.15s-.15.23-.15.35c.01.29.22.48.5.5h0Z"/>
              <path class="cls-6" d="M10,108.72c.09,1.3.22,2.6.39,3.9.03.27.21.5.5.5s.47-.23.5-.5c.09-.76.21-1.51.35-2.27.05-.27-.07-.54-.35-.62-.24-.07-.57.08-.62.35-.15.84-.28,1.68-.39,2.53h1c-.16-1.3-.29-2.6-.39-3.9-.02-.27-.22-.5-.5-.5-.26,0-.52.23-.5.5h0Z"/>
              <path class="cls-6" d="M8.24,107.42s0,0,0,.01l.02-.13s0,.02,0,.03l.05-.12s-.01.03-.02.04l.08-.1s-.02.02-.03.03l.1-.08s-.04.02-.06.03l.12-.05s-.07.02-.1.03l.13-.02s0,0,0,0l.13.02s0,0,0,0l.12.05h0s.07.05.1.08c0,0,0,0,0,0l.08.1s0,0,0,0l.05.12s0,0,0-.01l.02.13s0-.01,0-.02l-.02.13s0-.01,0-.02l-.05.12s0-.02.01-.02l-.08.1s.03-.03.04-.04l-.1.08s.02-.02.03-.02c.06-.03.11-.07.14-.13.04-.05.07-.1.09-.17.02-.07.02-.13,0-.2,0-.07-.02-.13-.06-.19l-.08-.1c-.06-.06-.14-.1-.22-.13l-.13-.02c-.09,0-.17.02-.25.07,0,0-.01,0-.02.02-.04.03-.08.06-.12.09,0,0-.01.01-.02.02,0,0,0,0,0,0-.01.02-.03.04-.04.05-.01.02-.03.04-.04.06-.03.04-.06.13-.06.14,0,0,0,0,0,0,0,0,0,0,0,0h0s-.01.09-.02.14c0,0,0,0,0,.01,0,0,0,0,0,0,0,.02.01.11.02.13,0,0,0,0,0,.01.04.11.04.1.09.18.02.02.03.04.04.05,0,0,.09.07.1.08.04.03.08.04.13.05s.1.02.14.02h.07s.05-.01.07-.02c0,0,0,0,0,0,.02,0,.04,0,.06-.02.03,0,.06-.02.09-.04s.06-.02.09-.04c0,0,.02-.01.03-.02.04-.03.07-.06.11-.08,0,0,0,0,.01-.01.04-.04.07-.09.1-.12,0,0,.01-.02.02-.03.02-.05.05-.09.06-.14,0,0,0-.01,0-.02,0-.04.01-.1.02-.13,0,0,0,0,0-.01,0-.07-.01-.13-.04-.19-.02-.06-.05-.12-.1-.16-.05-.05-.1-.08-.16-.1-.06-.03-.12-.05-.19-.04l-.13.02c-.08.02-.16.07-.22.13l-.08.1c-.05.08-.07.16-.07.25h0Z"/>
              <line class="cls-3" x1="8.42" y1="101.5" x2="8.42" y2="118.5"/>
            </g>
          </g>
          <g>
            <g>
              <path class="cls-6" d="M5.84,107.35c5.24.31,10.4.64,15.65.31,1.55-.1,7.23-1.33,8.24-.44-1.26-1.12-.68.68-.75,1.5-.15,1.84.2,3.98.36,5.81l3.8-2.89c-2.33-.32-22.82.82-22.7-.49l-1.49,2.59c1.55-1.2,6.69-.3,8.58-.35,3.12-.08,6.23-.28,9.34-.55,3.82-.33,3.85-6.33,0-6-5.84.5-11.86-.02-17.64.65-3.01.35-5.17,1.81-4.74,5.07.58,4.47,4.16,4.99,7.93,5.21,6.26.36,12.98-1.2,19.12-.35,1.74.24,3.98-.73,3.8-2.89-.49-5.71,1.88-13.2-5.61-13.31-8.02-.12-15.84.61-23.89.13-3.86-.23-3.84,5.77,0,6h0Z"/>
              <g>
                <line class="cls-1" x1="7.5" y1="100" x2="7.5" y2="118.16"/>
                <line class="cls-1" x1="18.5" y1="100.7" x2="18.5" y2="118.86"/>
                <line class="cls-1" x1="29.5" y1="100.7" x2="29.5" y2="118.86"/>
                <path class="cls-8" d="M2.5,105.48c1.39.13,2.79-.28,3.96-1.02l-3.01-1.73c-.24,4.41-.09,8.83.45,13.21l2-2c-.49-.05-.99-.09-1.48-.14l-.25-.02c-.66-.09-.37.1.88.56l.05.11c-.04-.1-.07-.21-.11-.31-.13-.38-.23-.78-.31-1.17-.1-.52-.1-.56-.14-1.03-.15-1.78-.01-3.57.13-5.35.08-1.05-.98-2.05-2-2-1.16.05-1.91.88-2,2-.19,2.35-.3,4.67.08,7.01.18,1.11.46,2.48,1.24,3.33.95,1.03,2.61.9,3.9,1.02.99.09,2.12-.99,2-2-.54-4.38-.69-8.8-.45-13.21.08-1.49-1.77-2.52-3.01-1.73-.44.28-.52.31-.96.45l-.21.05c.17-.01.13-.01-.12,0-.22,0-.43,0-.65-.03-1.04-.1-2.05.99-2,2,.05,1.17.88,1.89,2,2h0Z"/>
                <path class="cls-8" d="M20.46,104.77c1.13-.11,2.26-.19,3.4-.21.52-.01,1.05-.02,1.57-.01.26,0,.52,0,.78.01.09,0,1.07.06.63-.01l-.88-.51.09.07-.51-.88c-.02-.35-.03-.35-.03,0,0,.13,0,.26-.01.39,0,.3-.02.61-.02.91,0,.52.02,1.03.08,1.54.13,1.17.36,2.12.37,3.26.03,2.22-.42,4.41-.22,6.63.09,1.04.85,2.05,2,2,1-.04,2.1-.88,2-2-.17-1.88.12-3.74.2-5.61s-.41-3.66-.43-5.43c-.01-.89.18-1.89-.08-2.75-.45-1.47-1.88-1.56-3.18-1.6-1.92-.05-3.84.02-5.75.21-1.04.1-2.05.85-2,2,.04,1,.88,2.11,2,2h0Z"/>
                <path class="cls-8" d="M18.48,104.37c.19,2.1.34,4.2.31,6.31-.01,1.03-.07,2.05-.17,3.08-.05.46-.08.68-.18,1.26-.14.78-.31,1.56.17,2.29.86,1.29,2.34,1.02,3.67.95,1.08-.05,2.16-.08,3.24-.16.83-.06,1.63-.32,2.08-1.09.34-.58.37-1.28.31-1.94-.1-1.01-.34-1.96-.7-2.91-.34-.89-.73-1.77-.99-2.69-.29-1.05-.25-1.98-.2-3.2.08-1.8-2.21-2.55-3.41-1.41-2.23,2.1-1.43,5.35-1.31,8.02.05,1.04.89,2.05,2,2,1.04-.05,2.05-.88,2-2-.05-1.17-.27-2.34-.27-3.52,0-.25.01-.5.04-.75-.04.43.07-.3.09-.38.03-.11.07-.23.11-.34-.1.21-.09.21,0,.01.12-.19.11-.19-.05,0,.06-.08.14-.15.21-.22l-3.41-1.41c-.08,1.89.06,3.67.74,5.45.27.71.58,1.41.82,2.13.12.36.23.72.3,1.1.02.09.04.19.05.28-.02-.18-.03-.2-.01-.05,0,.1.02.19.02.29,0,.26,0,.26,0,0l.92-1.2c.59-.13.73-.18.43-.16l-.35.02c-.23.01-.46.02-.69.03-.42.02-.85.04-1.27.06-.83.04-1.71.17-2.54.12l1.01.27-.1-.04.72.72-.06-.1.27,1.01c-.02.31.07-.37.08-.45.04-.26.08-.52.12-.78.08-.55.15-1.1.2-1.66.09-.99.13-1.98.13-2.97,0-1.99-.13-3.98-.31-5.97-.1-1.04-.85-2.05-2-2-1,.04-2.1.88-2,2h0Z"/>
              </g>
            </g>
            <rect class="cls-4" x="1" y="100.7" width="34" height="18.16"/>
          </g>
        </g>
        <path class="cls-8" d="M22.04,105.4c1.22.02,2.44.04,3.67.05.64,0,.64-1,0-1-1.22,0-2.44-.02-3.67-.05-.27,0-.5.23-.5.5s.23.49.5.5h0Z"/>
      </g>
      <g>
        <path class="cls-8" d="M8.51,129.24c.88.44,1.85.6,2.8.8s1.85.4,2.75.69c1.8.58,3.3,1.74,5.01,2.52.49.22,1.08.14,1.37-.36.26-.45.12-1.11-.36-1.37-1.23-.65-2.62-.92-3.92-1.4s-2.57-1.11-3.78-1.83c-1.11-.66-2.12,1.07-1.01,1.73,1.24.74,2.55,1.36,3.89,1.89,1.24.49,2.63.71,3.81,1.33l1.01-1.73c-1.75-.79-3.3-1.95-5.12-2.59-.89-.32-1.81-.53-2.73-.73s-1.9-.28-2.71-.68c-1.15-.57-2.16,1.15-1.01,1.73h0Z"/>
        <path class="cls-8" d="M13.18,117.68c.16-.3.33-.61.49-.91.06-.1.11-.21.17-.31,0,0,.16-.26.09-.14.03-.05.04-.11.11-.1-.08.06-.17.08-.25.05-.03-.02-.02-.02.04.02.16.17.5.32.71.42,1.09.53,2.31.73,3.47,1l.27-1.96c-1.69.11-3.34-.2-4.99-.52l-.53,1.93c1.2.23,2.4.46,3.6.69,1.06.2,2.16.38,3.13.87.48.24,1.08.13,1.37-.36.26-.44.13-1.13-.36-1.37-1.1-.55-2.26-.81-3.46-1.04s-2.5-.48-3.75-.72c-.53-.1-1.08.15-1.23.7-.13.49.17,1.13.7,1.23,1.82.35,3.66.71,5.52.59.49-.03.92-.36.98-.87.06-.47-.22-.98-.72-1.1-.71-.16-1.43-.31-2.14-.5-.25-.07-.51-.14-.74-.24-.32-.13-.58-.35-.88-.51-.74-.39-1.6-.31-2.2.29-.51.5-.81,1.22-1.14,1.84-.62,1.13,1.11,2.14,1.73,1.01h0Z"/>
        <g>
          <g>
            <path class="cls-6" d="M22.81,134.88c1.93,0,1.93-3,0-3s-1.93,3,0,3h0Z"/>
            <g>
              <path class="cls-6" d="M24.39,125.99c-.28,1.41-1.29,2.65-1.88,4.16-.34.89-.56,1.85-.3,2.8.42,1.54,1.75,2.04,3.13,2.43,3.72,1.04,5.31-4.74,1.6-5.79-.46-.19-.56-.2-.32-.03l1.49,2.59c.03.5.1-.13.19-.33.2-.43.46-.83.68-1.25.51-.94.98-1.94,1.19-2.99.32-1.59-.46-3.24-2.1-3.69-1.48-.41-3.37.5-3.69,2.1h0Z"/>
              <path class="cls-6" d="M23.72,134.81c1.44.3,2.83.98,4.2,1.52s2.83,1.12,4.25,1.69c.89.36,1.94-.55,1.9-1.45-.04-.77-.14-1.54-.16-2.31s0-1.61.03-2.42c.07-1.61.19-3.22.14-4.84-.02-.75-.55-1.37-1.3-1.47-.68-.09-1.51.34-1.65,1.07-.36,1.98-1.12,3.64-1.95,5.4l2.8.76c-.13-1.74-.14-3.48-.02-5.22h-3c-.05.89-.18,1.65-.45,2.58-.29.99-.66,1.9-.79,2.93-.08.66.53,1.26,1.1,1.45.28.09.58.13.88.15.21.02.22.02.03,0,.53.17.37-.21-.47-1.13-.17.77.23,1.66,1.05,1.85.76.17,1.67-.23,1.85-1.05.19-.87-.11-1.79-.9-2.27-.24-.14-.51-.25-.79-.31-.2-.04-.4-.06-.6-.08-.28-.03.04.04-.25-.06l1.1,1.45c0,.11,0,.07.03-.12.03-.11.06-.23.09-.34.07-.23.14-.45.22-.67.16-.45.31-.89.43-1.35.26-.99.4-2.01.46-3.03.05-.78-.72-1.53-1.5-1.5-.86.04-1.44.66-1.5,1.5-.12,1.74-.12,3.48.02,5.22.05.64.43,1.29,1.1,1.45.61.14,1.41-.08,1.69-.69.92-1.97,1.86-3.97,2.25-6.12l-2.95-.4c.05,1.62-.07,3.23-.14,4.84-.03.8-.06,1.61-.03,2.42s.13,1.54.16,2.31l1.9-1.45c-1.41-.57-2.83-1.13-4.25-1.69s-2.75-1.22-4.2-1.52c-.77-.16-1.66.22-1.85,1.05-.17.75.23,1.67,1.05,1.85h0Z"/>
            </g>
          </g>
          <g>
            <g>
              <path class="cls-6" d="M4.5,116.35c-.02-.13-.02-.17,0-.01-.01-.12-.02-.23-.03-.35-.01-.21-.02-.42-.02-.63,0-.42,0-.84,0-1.26,0-.91-.05-1.84-.3-2.73l-2.2,1.69c1.27.69,2.63,1.25,4.03,1.61.68.18,1.37.29,2.04.49.18.05.35.12.53.18.3.1-.16-.09.16.06.34.16.66.33.98.53v-2.59c-.07.05-.16.09-.23.13.2-.14.03-.01-.07.02-.18.06-.37.09-.56.12-.09.02-.18.03-.27.04l-.15.02c.13-.02.14-.02.03,0-.22.02-.45.05-.67.07-.89.08-1.79.09-2.69.05-.78-.03-1.54.71-1.5,1.5.04.84.66,1.46,1.5,1.5,1,.04,1.99.02,2.98-.08,1.07-.11,2.2-.2,3.14-.79s.97-1.99,0-2.59c-.66-.41-1.38-.74-2.11-.99-.66-.23-1.35-.34-2.03-.51s-1.3-.36-1.92-.6c-.05-.02-.57-.23-.29-.11-.13-.05-.25-.11-.38-.17-.34-.16-.67-.32-.99-.5-1.12-.61-2.58.4-2.2,1.69.06.2.09.4.14.6.06.22-.01-.22,0,0,0,.11.02.23.03.34.03.42.02.83.02,1.25-.01.93,0,1.84.16,2.76.13.78,1.13,1.28,1.85,1.05.84-.27,1.19-1.01,1.05-1.85h0Z"/>
              <path class="cls-6" d="M25.56,129.64c-.1.07-.07.06.07-.05.08-.06.17-.13.25-.19.17-.12.34-.24.51-.36.34-.24.7-.46,1.05-.68s.7-.4,1.07-.58c.16-.07.18-.08.06-.03.09-.04.19-.07.28-.1.19-.06.38-.11.58-.15-.26.05.3-.02.36-.02.2,0,.41,0,.61,0,.41,0,.82.03,1.23,0,1.06-.08,2.03-.77,2.5-1.73.54-1.11.18-2.44-.95-3.01-1.02-.51-2.02-.15-3.01.22-1.62.61-3.25,1.21-4.87,1.82-.73.27-1.31,1.03-1.05,1.85.23.72,1.06,1.34,1.85,1.05,1.37-.51,2.74-1.02,4.11-1.54.36-.13.71-.27,1.07-.4.15-.06.3-.11.45-.17.1-.04.2-.07.3-.1.17-.04.2-.05.1-.02-.18-.07-.3-.01-.47-.17-.42-.39-.28-.6-.16-.94-.09.15-.1.16-.02.04-.05.05-.1.1-.15.15-.36.33.16-.22.31-.05-.04-.04-.37.01-.46.01-.21,0-.41,0-.61,0-.31,0-.61-.01-.92,0-.9.05-1.69.27-2.51.64-1.34.6-2.55,1.49-3.7,2.39-.62.49-.55,1.62,0,2.12.66.6,1.46.52,2.12,0h0Z"/>
            </g>
            <g>
              <g>
                <path class="cls-8" d="M19.58,123.49c-.35-3-1.24-6.24-4.75-6.8l-1.2,8.84c1.2-.07,2.42-.15,3.62-.05.41.04.77.09,1.18.17.26.06,1.6.65.9.03l-1.32-3.18c.06.47,0,.9-.09,1.36-.02.13-.53,1.84,0,1.2l4.38-1.16c-3.58-1.09-7.23-2.23-10.87-3.26-5.58-1.58-7.97,7.1-2.39,8.68,3.65,1.03,7.26,2.16,10.87,3.26,1.41.43,3.41.03,4.38-1.16,2.3-2.82,4.29-9.26,1.29-12.21s-8.18-2.91-11.94-2.69c-2.23.13-4.15,1.61-4.42,3.9-.24,2.01.98,4.58,3.22,4.94l-.09-.03-1.61-1.61.28.53-.61-2.27c.06.5.11,1,.17,1.5.29,2.41,1.86,4.5,4.5,4.5,2.21,0,4.79-2.07,4.5-4.5h0Z"/>
                <g>
                  <line class="cls-2" x1="27" y1="118.05" x2="21" y2="134.22"/>
                  <line class="cls-2" x1="12.79" y1="113.86" x2="6.79" y2="130.03"/>
                  <path class="cls-6" d="M9.75,115.6c-1.77.23-3.55.37-5.34.41-.65.01-1.38-.04-1.96.33-.65.42-1.06,1.06-1.22,1.8-.11.51-.11,1.01-.1,1.52,0,.21,0,.43-.02.64,0,.11-.02.21-.03.32s-.01.49,0,.03c0,.39-.13.81-.2,1.19-.09.57-.18,1.15-.23,1.72-.09,1.11-.02,2.36.86,3.16.41.37.9.6,1.43.74.19.05.37.1.56.16.17.05.52.11.64.23-.02-.02-.42-.19-.06-.02.06.03.13.06.19.09.43.2.73.33,1.22.33,1.13,0,1.82-.76,2.21-1.74.08-.2.15-.39.23-.59.14-.35,0-.02-.02.04.05-.14.13-.29.19-.43.18-.4.38-.8.59-1.19.48-.9,1.13-1.77,1.35-2.79s-.29-2.22-1.4-2.46c-1.71-.38-3.56.16-4.7,1.53-.67.81-.85,2.05,0,2.83.74.68,2.12.86,2.83,0,.14-.16.32-.3.45-.46-.22.17-.27.21-.15.13.05-.03.11-.07.16-.1.3-.19-.31.09-.09.02.1-.03.19-.06.29-.09.34-.1-.35,0-.11,0,.1,0,.2,0,.3,0,.38-.02-.45-.09-.05,0l-1.4-2.46c-.02.12-.07.23-.09.35-.05.24.16-.29.03-.08-.11.18-.21.38-.32.56-.25.42-.49.84-.71,1.28-.5.97-.88,1.98-1.3,2.98l.51-.88.23-.17,1.01-.27c.73.25.92.29.56.13-.09-.04-.18-.09-.28-.13-.3-.13-.6-.26-.9-.37s-.64-.2-.97-.29c-.07-.02-.14-.04-.21-.06.2.05.37.15.51.29.25.24.38.52.38.85,0-.11-.01-.21-.02-.32,0-.21,0-.43.01-.64,0-.06.06-.67.03-.37s.05-.31.06-.37c.03-.21.07-.42.11-.64.09-.52.17-1.04.23-1.57.05-.4.07-.79.07-1.19,0-.1-.07-.55,0-.61-.05.28-.05.31,0,.09-.06.15-.14.29-.24.42l-.88.51-.25.02c.08,0,.17,0,.25,0,.11,0,.22,0,.33,0,.25,0,.5-.01.75-.02.53-.02,1.06-.05,1.59-.08,1.03-.07,2.06-.17,3.08-.31.55-.07,1-.18,1.41-.59.35-.35.61-.92.59-1.41-.04-.97-.89-2.14-2-2h0Z"/>
                  <path class="cls-6" d="M25.62,120.88c-.26.72-.5,1.46-.79,2.17l.2-.48c-.08.19-.17.37-.28.54-.65,1.03-.06,2.69,1.2,2.94.87.17,1.74.13,2.58-.18.67-.25,1.3-.59,1.96-.87l-.48.2c.31-.13.62-.22.95-.27l-.53.07c.8-.09,1.57-.1,2.29-.53s1.06-1.2.95-1.99-.66-1.47-1.43-1.66-1.58-.38-2.38-.55c-.53-.11-1.06-.08-1.54.2-.41.24-.81.72-.92,1.2-.12.51-.09,1.09.2,1.54.27.42.69.81,1.2.92.8.16,1.59.35,2.38.55l-.48-3.66s-.1.06-.15.08l.48-.2c-.13.05-.26.09-.39.11l.53-.07c-.68.09-1.36.09-2.01.33s-1.3.58-1.95.86l.48-.2c-.32.13-.65.24-1,.29l.53-.07c-.19.02-.37.03-.55,0l.53.07c-.06,0-.12-.02-.18-.03l1.2,2.94c.32-.51.52-1.1.72-1.67l.55-1.52c.17-.47.04-1.13-.2-1.54s-.72-.81-1.2-.92c-.51-.12-1.09-.09-1.54.2s-.74.68-.92,1.2h0Z"/>
                </g>
              </g>
              <polygon class="cls-4" points="1 109 34.5 121.49 34.5 139.03 1 127.29 1 109"/>
            </g>
          </g>
          <path class="cls-6" d="M24.66,126.09c-.08.5-.21.98-.41,1.45l.2-.48c-.25.57-.58,1.07-.95,1.57-.39.53-.77,1.06-1.16,1.6-.29.4-.33,1.09-.2,1.54s.49.97.92,1.2c.46.25,1.03.37,1.54.2l.48-.2c.3-.18.54-.42.72-.72.56-.77,1.16-1.52,1.66-2.32s.9-1.8,1.05-2.77c.09-.55.09-1.04-.2-1.54-.24-.41-.72-.81-1.2-.92-.51-.12-1.09-.09-1.54.2-.41.26-.84.69-.92,1.2h0Z"/>
        </g>
      </g>
    </g>
  </g>
</svg>