<?xml version="1.0" encoding="UTF-8"?>
<svg xmlns="http://www.w3.org/2000/svg" viewBox="0 0 5000 1735">
  <defs>
    <style>
      .cls-1 {
        fill: #999;
      }

      .cls-1, .cls-2, .cls-3, .cls-4, .cls-5, .cls-6, .cls-7, .cls-8, .cls-9, .cls-10, .cls-11, .cls-12, .cls-13, .cls-14, .cls-15, .cls-16, .cls-17, .cls-18 {
        stroke-width: 0px;
      }

      .cls-19 {
        fill: #969595;
        stroke: #777676;
      }

      .cls-19, .cls-20, .cls-21, .cls-22, .cls-23, .cls-24, .cls-25, .cls-26, .cls-27, .cls-28, .cls-29, .cls-30, .cls-31 {
        stroke-miterlimit: 10;
      }

      .cls-19, .cls-21, .cls-25, .cls-31 {
        stroke-width: 3px;
      }

      .cls-20 {
        fill: #d9dbce;
        stroke: #828282;
      }

      .cls-20, .cls-24 {
        stroke-width: 5px;
      }

      .cls-21, .cls-24 {
        fill: #dbdad6;
        stroke: #636161;
      }

      .cls-22, .cls-28 {
        stroke: #606268;
      }

      .cls-22, .cls-28, .cls-14 {
        fill: #989ba4;
      }

      .cls-22, .cls-30 {
        stroke-width: 2px;
      }

      .cls-2, .cls-25, .cls-27 {
        fill: #7d1a15;
      }

      .cls-23 {
        fill: #bfbf4c;
        font-family: MyriadPro-Regular, 'Myriad Pro';
        font-size: 72.98px;
        stroke: #8a8300;
      }

      .cls-3 {
        fill: #b25006;
      }

      .cls-5 {
        fill: #606268;
      }

      .cls-25, .cls-27 {
        stroke: #5e0101;
      }

      .cls-6 {
        fill: #5e0101;
      }

      .cls-7 {
        fill: #6b6b6b;
      }

      .cls-26 {
        stroke-width: 14px;
      }

      .cls-26, .cls-29 {
        fill: #1965a1;
        stroke: #4c433c;
      }

      .cls-8 {
        fill: gray;
      }

      .cls-9 {
        fill: #b3b3b3;
      }

      .cls-10 {
        fill: #541313;
      }

      .cls-11 {
        fill: #545454;
      }

      .cls-27 {
        font-family: PalatinoLinotype-Roman, 'Palatino Linotype';
        font-size: 48.04px;
      }

      .cls-12 {
        fill: #ccc;
      }

      .cls-28 {
        stroke-width: 4px;
      }

      .cls-13 {
        fill: #fff;
      }

      .cls-15 {
        fill: #85878e;
      }

      .cls-16 {
        fill: #424242;
      }

      .cls-29 {
        stroke-width: 11px;
      }

      .cls-17 {
        fill: #3a3a3a;
      }

      .cls-18 {
        fill: #826966;
      }

      .cls-30, .cls-31 {
        fill: #f9e593;
        stroke: #afab85;
      }
    </style>
  </defs>
  <g id="_Слой_1" data-name="Слой 1">
    <g>
      <rect class="cls-18" x=".5" y="1552.5" width="4999" height="182"/>
      <path class="cls-18" d="M4999,1553v181H1v-181h4998M5000,1552H0v183h5000v-183h0Z"/>
    </g>
  </g>
  <g id="_Слой_4" data-name="Слой 4">
    <g>
      <g>
        <path class="cls-22" d="M2712.43,1365.28c-20.75,3.7-41.51,7.41-62.26,11.11-51.44,10.06-102.89,20.12-154.33,30.19l-49.41,9.23,198.85,70.89,12.44-.51c4.62-.34,9.23-.68,13.85-1.02.84-.23,1.8-.55,2.83-1.02.7-.32,1.32-.65,1.87-.98,28.24-24.53,56.48-49.07,84.72-73.6,2.42-2.38,4.55-4.59,6.4-6.56,2.3-2.45,3.36-3.69,3.57-5.54.21-1.87-.55-3.47-1.17-4.45-1.16-1.67-2.51-3.42-4.08-5.22-2.73-3.14-5.5-5.7-8.03-7.76-4.59-2.51-9.18-5.01-13.77-7.52-4.54-2.01-10.43-4.13-17.51-5.57-5.21-1.06-9.94-1.52-13.98-1.67Z"/>
        <path class="cls-28" d="M1976.36,1284.21c-6.74-1.06-16.69-2.43-28.91-3.3-9.56-.69-14.41-1.01-18.22-.15-15.57,3.54-23.73,22.27-27.22,32.58-2.11,6.21-2.93,12.75-3.15,14.51-.92,7.25-.49,11.51-.37,12.6,0,0,.62,5.24,2.38,9.79,4.65,12.04,26.48,19.12,27.75,19.53,58.23,18.33,87.35,27.49,104.04,31.66,3.67.92-3.04-.74,63.15,18.07,38.48,10.93,69.69,19.71,100.05,28.23,72.46,20.33,108.64,30.69,129.16,36.01,35.9,9.3,71.8,18.61,107.7,27.91,33.78,4.9,67.55,9.8,101.33,14.69l57.73,4.81s20.26,2.76,27.32-10.12c7.06-12.87,4.86-19.08,4.86-19.08l8.23-8.43c5.57-.38,11.15-.76,16.72-1.14,1.06-1.29,2.03-2.2,2.74-2.81.38-.32,1.09-.91,1.83-1.87.56-.73.95-1.26.87-1.83-.13-.9-1.36-1.46-2-1.72-2.49-1-30.47-11.37-68.77-25.47l-60.53-23.57-221.94-72.63-160.15-42.82-104.7-25.34c-19.97-3.37-39.93-6.74-59.9-10.11Z"/>
        <g>
          <path class="cls-20" d="M2052.1,1295.98c-.67-4.55,23.82-11.23,26.04-11.83,10.89-2.93,19.21-3.39,24.41-3.38.85,0,4.73.01,9.66.53,26.83,2.82,59.87,16.66,59.87,16.67,7.62,3.19,23.82,10.34,42.05,22.83,6.09,4.18,17.25,11.9,15.88,14.82-1.11,2.35-9.82.54-13.93-.3-62.99-13-49.97-8.87-61.75-12.39-51.05-15.22-49.89-19.46-73.05-22.23-15.6-1.86-28.7-1.44-29.18-4.72Z"/>
          <g>
            <path class="cls-14" d="M2045.67,1295.8l201.06,50.94-17.89-12.63c-2.75.36-5.99.6-9.6.51-4.61-.12-8.62-.74-11.86-1.46-16.91-3.19-34.88-7.21-53.72-12.29-14.01-3.78-27.28-7.82-39.79-11.99-.73-.43-1.82-1.2-2.82-2.46-1.09-1.38-1.59-2.73-1.82-3.56-.25-.81-.48-1.67-.69-2.57-.39-1.66-.65-3.22-.82-4.66-.14-2.02-.14-4.3.13-6.79.1-.92.23-1.8.38-2.63.09-.48.23-1.02.44-1.59.41-1.14.96-2.03,1.44-2.69-1.26-.11-2.51-.21-3.77-.32s-2.51-.21-3.77-.32c-.77,1.96-1.55,3.91-2.32,5.87-.74,1.32-1.71,2.8-2.95,4.33-.85,1.05-1.7,1.96-2.51,2.74-.68.67-1.7,1.51-3.07,2.25-1.18.63-2.28,1-3.14,1.21-1.73.27-3.9.47-6.4.34-2.08-.11-3.9-.41-5.4-.76-3.95-.49-7.91-.97-11.86-1.46s-7.91-.97-11.86-1.46c-3.91.21-7.82.42-11.73.62,1.44.27,2.89.54,4.33.81Z"/>
            <path class="cls-5" d="M2046.21,1293.36c49.83,13.49,100.63,26.4,150.7,38.85,14.67,3.57,35.88,8.78,50.43,12.14,0,0-2.03,4.41-2.03,4.41-5.1-3.5-12.74-8.95-17.91-12.6,0,0,1.78.44,1.78.44-5.09.67-10.25.64-15.33.04-34.14-6.2-67.67-15.61-100.8-25.83-3.28-1.73-5.55-5.11-6.32-8.72-1.73-5.75-1.91-11.68-.56-17.59.42-1.45,1.1-2.82,1.98-4.03l1.77,3.9s-7.53-.59-7.53-.59l2.54-1.57-2.31,5.87-.06.16c-3.01,5.2-7.22,10.47-13.33,11.93-3.91.8-9.9.45-12.74-.34.76.07-25.72-3.15-23.27-2.95,0,0-11.74.6-11.74.6,0,0,.33-4.97.33-4.97l4.4.84h0ZM2045.13,1298.24c-3.15-.57-21.37-3.97-24.83-4.61,7.71-.43,25.18-1.39,32.63-1.8.12-.02.33,0,.44.02,0,0,23.73,2.88,23.73,2.88,3.24.88,8.41.96,10.86.5,4.47-.76,8.51-6.59,9.95-8.99.5-1.23,2.57-6.47,3.03-7.61,0,0,1.85.17,1.85.17,2.82.26,9.19.85,11.93,1.1,0,0-2.64,3.49-2.64,3.49-1.93,2.51-1.91,5.99-2.1,9.11-.08,2.27.17,4.54.64,6.76.59,3.02,1.44,6.18,4.32,7.82,16.28,5.66,37.71,12.13,56.18,16.38,9.58,2.22,19.2,4.23,28.86,6.02,2.01.34,8.8,1.63,10.84,1.98,6.17,1.01,12.49.93,18.66.04,9.2,6.42,20.47,14.46,29.49,21.17-12.3-3.41-25.65-7.02-37.88-10.28-58.17-15.32-117.45-30.29-175.97-44.16h0Z"/>
          </g>
        </g>
        <path class="cls-25" d="M2615.17,1395.62l6.57,18.73c7.59,1.92,15.19,3.83,22.78,5.75-6.53,3.81-13.06,7.62-19.59,11.43.34,7.33.68,14.67,1.02,22-5.88-4.64-11.75-9.28-17.63-13.93-7.31,2.9-14.63,5.8-21.94,8.7,2.83-6.96,5.66-13.92,8.48-20.88-4.93-5.55-9.87-11.11-14.8-16.66,7.7.35,15.39.71,23.09,1.06l12.01-16.19Z"/>
        <g>
          <path class="cls-15" d="M2113.33,1363.94l262.5,17.03,123.61,11.08c16.97,2.83,35.95,7.06,56.24,13.41,11.73,3.67,22.58,7.63,32.54,11.69,6.04,2.6,12.11,5.2,18.21,7.79,11.14,4.73,22.22,9.36,33.24,13.91-30.89-.67-61.78-1.35-92.67-2.02l-113.44-7c-27.05-1.73-54.09-3.46-81.14-5.19,1.11.4,2.22.81,3.32,1.21,10.9,3.59,21.8,7.19,32.7,10.78-16.27-1.99-33.37-4.54-51.16-7.78-13.32-2.42-26.1-5.07-38.32-7.86-12.39-2.33-25.12-4.94-38.14-7.86-8.25-1.86-16.33-3.77-24.23-5.74-14.73-4.68-29.66-9.6-44.78-14.78-27.18-9.31-53.35-18.91-78.5-28.67Z"/>
          <path class="cls-5" d="M2111.86,1363.62c13.44-.57,29.3.06,43.15.42,65.33,1.09,134.34,5.64,199.74,10.34,5.68.38,15.98,1.07,21.57,1.46.34.14,25.69,2.31,27.12,2.53.07.09,96.55,8.71,96.64,8.77,12.38,2.11,24.69,4.7,36.82,7.93,24.15,6.33,47.56,15.11,70.16,25.71,13.01,5.9,25.98,12.25,38.3,19.69-23.51-.68-81.88-1.42-104.6-2.52-55.21-3.38-132.97-8.23-188.43-11.81,0,0,.61-2.91.61-2.91,2.89,1.23,5.87,2.31,8.83,3.42,5.82,2.18,20.89,7.8,26.88,10.04-31.08-3.75-61.88-9.42-92.43-16.2-15.97-3.05-32.18-6.49-47.98-10.25-11.66-2.43-22.87-6.49-34.19-10.13-22.59-7.46-45.05-15.3-67.37-23.52-7.01-2.62-22.17-8.26-29.21-11.02,0,0-2.08-.8-2.08-.8-.71-.27-1.72-.39-3.54-1.13h0ZM2114.79,1364.26c-.44-.2-.06.21.62.48,0,0,2.08.8,2.08.8,20.44,7.85,42.17,15.89,62.8,23.07,22.55,7.49,44.83,16.14,67.98,21.61,15.8,3.76,32.01,7.2,47.98,10.25,30.44,6.78,61.35,12.41,92.21,16.17-14.77-4.33-32.96-9.12-47.39-14.25,60.09,3.88,139.88,8.87,199.83,12.54,7.01.57,20,.63,26.94.83,0,0,71.87,1.56,71.87,1.56l-.6,2.89c-11.99-3.34-23.67-7.5-35.21-11.96-22.55-9.5-45.6-18.01-69.41-23.84-11.16-2.9-25.5-5.8-35.48-7.46-22.75-1.95-105.25-9.46-126.44-11.04-42.79-2.77-91.47-5.2-133.96-8.85-40.53-3.68-83.06-8.14-123.81-12.82h0Z"/>
        </g>
        <text class="cls-27" transform="translate(2036.64 1354.34) rotate(13.56) scale(.98 1) skewX(-1.82)"><tspan x="0" y="0">01</tspan></text>
        <g>
          <path class="cls-2" d="M2464.01,1412.83c-11.69-1.25-23.37-2.51-35.06-3.76,5.55,3.01,11.1,6.01,16.65,9.02-9.7-2.6-19.4-5.21-29.1-7.81-10.01.45-20.02.89-30.03,1.34,6.76-1.87,13.53-3.73,20.29-5.6-11.27-2.33-22.54-4.65-33.81-6.98,12.94,1.03,25.88,2.06,38.83,3.09,2.23-1.73,4.46-3.45,6.69-5.18,3.21,2.76,6.42,5.51,9.64,8.27,11.97,2.53,23.93,5.07,35.9,7.6Z"/>
          <path class="cls-6" d="M2465.49,1413.06c-5.13-.48-13.01-.81-18.25-1.13-6.12-.34-12.34-.84-18.45-1.38,0,0,.87-2.81.87-2.81,6.68,3.62,21.29,11.54,27.85,15.09-7.06-1.97-35.29-9.32-40.95-11.06-8.99.4-34.67,1.54-43.32,1.93,0,0,12.82-3.54,12.82-3.54l20.29-5.6.1,2.92-33.51-8.4-.41-.1.42.02,38.94,1.64-1.04.31,6.69-5.18s.99-.77.99-.77c0,0,.9.82.9.82l9.41,8.54-.51-.25c12.42,2.03,25.14,5.91,37.15,8.96h0ZM2462.53,1412.59c-11.96-2.08-23.43-3.2-34.99-6.36,0,0-.17-.14-.17-.14l-9.87-8,1.89.05-6.69,5.18s-.48.37-.48.37l-.55-.07c.04-.07-38.92-4.42-38.7-4.63,4.98.81,36.72,5.98,40.81,6.64-4.47,1.23-22.13,6.1-26.91,7.42,0,0-.47-2.94-.47-2.94l30.03-1.34h.23c.35.11,29,7.76,29.32,7.86,0,0-1.1,2.77-1.1,2.77l-16.65-9.02-7.04-3.81c7.98,1.01,16.62,2.07,24.52,3.39,4.69.78,12.13,1.99,16.8,2.63h0Z"/>
        </g>
      </g>
      <g>
        <path class="cls-26" d="M2050.35,1411.91l-1.3,24.36c42.39,37.47,84.79,74.94,127.18,112.41,7.32,8.45,9.71,18.7,5.5,25.77-4.16,6.99-13.74,9.14-17.58,10,0,0-3.04.68-19.12,1.09l.49,22.46,499.26,6.7c-.65-7.61-1.3-15.22-1.96-22.83-197.49-59.99-394.99-119.97-592.48-179.96Z"/>
        <path class="cls-29" d="M2642.83,1591.87c-165.13-2.01-330.25-4.01-495.38-6.02"/>
      </g>
    </g>
    <g>
      <g>
        <rect class="cls-3" x="3842.09" y="666.57" width="797.25" height="581.29"/>
        <path class="cls-10" d="M4637.35,668.57v577.29h-793.25v-577.29h793.25M4641.35,664.57h-801.25v585.29h801.25v-585.29h0Z"/>
      </g>
      <g>
        <rect class="cls-3" x="3838.65" y="15.49" width="797.25" height="469.97"/>
        <path class="cls-10" d="M4633.91,17.49v465.97h-793.25V17.49h793.25M4637.91,13.49h-801.25v473.97h801.25V13.49h0Z"/>
      </g>
      <g>
        <rect class="cls-9" x="3795.17" y="1310.4" width="884.22" height="221.33"/>
        <path class="cls-7" d="M4677.89,1311.9v218.33h-881.22v-218.33h881.22M4680.89,1308.9h-887.22v224.33h887.22v-224.33h0Z"/>
      </g>
      <g>
        <rect class="cls-8" x="3762.5" y="1529.67" width="953" height="94.83"/>
        <path class="cls-17" d="M4714,1531.17v91.83h-950v-91.83h950M4717,1528.17h-956v97.83h956v-97.83h0Z"/>
      </g>
      <g>
        <rect class="cls-9" x="3800.33" y="203.91" width="880.78" height="32.42"/>
        <path class="cls-7" d="M4679.61,205.41v29.42h-877.78v-29.42h877.78M4682.61,202.41h-883.78v35.42h883.78v-35.42h0Z"/>
      </g>
      <g>
        <rect class="cls-13" x="3798.11" y="480.03" width="885.22" height="78.96"/>
        <path class="cls-11" d="M4682.33,481.03v76.96h-883.22v-76.96h883.22M4684.33,479.03h-887.22v80.96h887.22v-80.96h0Z"/>
      </g>
      <g>
        <polygon class="cls-9" points="3839.42 666.44 3799.26 558.12 4682.11 558.12 4638.61 666.44 3839.42 666.44"/>
        <path class="cls-7" d="M4679.89,559.62l-42.3,105.32h-797.14l-39.04-105.32h878.47M4684.33,556.62h-887.22l41.27,111.32h801.25l44.71-111.32h0Z"/>
      </g>
      <g>
        <rect class="cls-9" x="3796.89" y="1.5" width="880.78" height="23.99"/>
        <path class="cls-7" d="M4676.17,3v20.99h-877.78V3h877.78M4679.17,0h-883.78v26.99h883.78V0h0Z"/>
      </g>
      <g>
        <rect class="cls-13" x="3796.39" y="1249.17" width="885.22" height="63.78"/>
        <path class="cls-11" d="M4680.61,1250.17v61.78h-883.22v-61.78h883.22M4682.61,1248.17h-887.22v65.78h887.22v-65.78h0Z"/>
      </g>
      <g>
        <rect class="cls-13" x="4221.09" y="24.61" width="35.83" height="1224.25"/>
        <path class="cls-11" d="M4255.91,25.61v1222.25h-33.83V25.61h33.83M4257.91,23.61h-37.83v1226.25h37.83V23.61h0Z"/>
      </g>
      <g>
        <rect class="cls-13" x="4014.76" y="665.57" width="28.95" height="583.29"/>
        <path class="cls-4" d="M4042.71,666.57v581.29h-26.95v-581.29h26.95M4044.71,664.57h-30.95v585.29h30.95v-585.29h0Z"/>
      </g>
      <g>
        <rect class="cls-13" x="4441.17" y="665.57" width="28.95" height="583.29"/>
        <path class="cls-4" d="M4469.12,666.57v581.29h-26.95v-581.29h26.95M4471.12,664.57h-30.95v585.29h30.95v-585.29h0Z"/>
      </g>
      <g>
        <rect class="cls-13" x="4231.4" y="1249.17" width="13.47" height="375.83"/>
        <path class="cls-11" d="M4243.88,1250.17v373.83h-11.48v-373.83h11.48M4245.88,1248.17h-15.48v377.83h15.48v-377.83h0Z"/>
      </g>
      <g>
        <path class="cls-13" d="M4319.09,353.21v-45c0-18.73,15.24-33.96,33.96-33.96h63.49c19.12,0,34.67,15.55,34.67,34.67v44.3h-132.12Z"/>
        <path class="cls-4" d="M4416.54,275.25c18.56,0,33.67,15.1,33.67,33.67v43.3h-130.11v-44c0-18.18,14.79-32.96,32.96-32.96h63.49M4416.54,273.25h-63.49c-19.31,0-34.96,15.65-34.96,34.96v46h134.11v-45.3c0-19.7-15.97-35.67-35.67-35.67h0Z"/>
      </g>
      <g>
        <path class="cls-13" d="M4035.39,353.21v-45c0-18.73,15.24-33.96,33.96-33.96h63.48c19.12,0,34.67,15.55,34.67,34.67v44.3h-132.12Z"/>
        <path class="cls-4" d="M4132.84,275.25c18.56,0,33.67,15.1,33.67,33.67v43.3h-130.11v-44c0-18.18,14.79-32.96,32.96-32.96h63.49M4132.84,273.25h-63.49c-19.31,0-34.96,15.65-34.96,34.96v46h134.11v-45.3c0-19.7-15.97-35.67-35.67-35.67h0Z"/>
      </g>
      <g>
        <path class="cls-13" d="M3882.36,349.84v-45c0-18.73,15.24-33.96,33.96-33.96h63.49c19.11,0,34.67,15.55,34.67,34.67v44.3h-132.12Z"/>
        <path class="cls-4" d="M3979.81,271.88c18.56,0,33.67,15.1,33.67,33.67v43.3h-130.12v-44c0-18.18,14.79-32.96,32.96-32.96h63.49M3979.81,269.88h-63.49c-19.31,0-34.96,15.65-34.96,34.96v46h134.12v-45.3c0-19.7-15.97-35.67-35.67-35.67h0Z"/>
      </g>
      <g>
        <path class="cls-13" d="M4470.4,353.21v-45c0-18.73,15.24-33.96,33.96-33.96h63.49c19.11,0,34.67,15.55,34.67,34.67v44.3h-132.11Z"/>
        <path class="cls-4" d="M4567.85,275.25c18.56,0,33.67,15.1,33.67,33.67v43.3h-130.12v-44c0-18.18,14.79-32.96,32.96-32.96h63.48M4567.85,273.25h-63.48c-19.31,0-34.96,15.65-34.96,34.96v46h134.12v-45.3c0-19.7-15.97-35.67-35.67-35.67h0Z"/>
      </g>
      <g>
        <g>
          <path class="cls-13" d="M3870.32,916.58v-66.73c.42-2.2.98-4.41,1.67-6.57,5.62-17.49,17.53-29.09,26.54-35.73,9.11-6.72,19.53-11.35,30.97-13.76,11.83,2.59,22.9,7.84,32.04,15.21,11.99,9.66,19.98,21.19,23.74,34.25.75,2.6,1.31,5.27,1.68,7.93v65.4h-116.64Z"/>
          <path class="cls-11" d="M3929.5,794.8c11.6,2.57,22.46,7.74,31.42,14.97,11.83,9.53,19.7,20.89,23.41,33.75.73,2.53,1.28,5.12,1.64,7.72v64.33h-114.64v-65.64c.41-2.13.95-4.27,1.62-6.36,5.54-17.24,17.29-28.67,26.18-35.23,8.94-6.6,19.15-11.15,30.37-13.54M3929.5,792.76c-7.77,1.62-19.72,5.24-31.57,13.98-4.61,3.4-20.2,15.39-26.89,36.23-.9,2.81-1.42,5.17-1.72,6.78v67.83h118.64v-66.47c-.27-1.97-.76-4.81-1.72-8.14-5.61-19.5-19.47-31.04-24.07-34.75-12.41-10-25.23-13.85-32.67-15.46h0Z"/>
        </g>
        <g>
          <path class="cls-13" d="M4074.94,916.58v-66.73c.42-2.2.98-4.41,1.67-6.57,5.62-17.49,17.53-29.09,26.54-35.73,9.11-6.72,19.53-11.35,30.97-13.76,11.83,2.59,22.9,7.84,32.04,15.21,11.99,9.66,19.98,21.19,23.74,34.25.75,2.59,1.31,5.26,1.68,7.93v65.4h-116.64Z"/>
          <path class="cls-11" d="M4134.11,794.8c11.6,2.57,22.46,7.74,31.42,14.97,11.83,9.53,19.7,20.89,23.4,33.75.73,2.53,1.28,5.12,1.64,7.72v64.33h-114.64v-65.64c.41-2.13.95-4.27,1.62-6.36,5.54-17.24,17.29-28.67,26.18-35.23,8.94-6.6,19.15-11.15,30.37-13.54M4134.12,792.76c-7.77,1.62-19.72,5.24-31.57,13.98-4.61,3.4-20.2,15.39-26.89,36.23-.9,2.81-1.42,5.17-1.72,6.78v67.83h118.64v-66.47c-.27-1.97-.76-4.81-1.72-8.14-5.61-19.5-19.47-31.04-24.07-34.75-12.41-10-25.23-13.85-32.67-15.46h0Z"/>
        </g>
        <g>
          <path class="cls-13" d="M4298.46,916.58v-66.73c.42-2.21.98-4.42,1.67-6.57,5.62-17.49,17.53-29.09,26.54-35.73,9.11-6.72,19.53-11.35,30.97-13.76,11.83,2.59,22.9,7.84,32.04,15.21,11.99,9.66,19.98,21.19,23.74,34.25.75,2.6,1.31,5.27,1.68,7.93v65.4h-116.64Z"/>
          <path class="cls-11" d="M4357.63,794.8c11.6,2.57,22.46,7.74,31.42,14.97,11.83,9.53,19.7,20.89,23.4,33.75.73,2.52,1.28,5.12,1.64,7.72v64.33h-114.64v-65.64c.41-2.13.95-4.27,1.62-6.36,5.54-17.24,17.29-28.67,26.18-35.23,8.94-6.6,19.15-11.15,30.37-13.54M4357.64,792.76c-7.77,1.62-19.72,5.24-31.57,13.98-4.61,3.4-20.2,15.39-26.89,36.23-.9,2.81-1.42,5.17-1.72,6.78v67.83h118.64v-66.47c-.27-1.97-.76-4.81-1.72-8.14-5.61-19.5-19.47-31.04-24.07-34.75-12.41-10-25.23-13.85-32.67-15.46h0Z"/>
        </g>
        <g>
          <path class="cls-13" d="M4499.63,916.58v-66.73c.42-2.2.98-4.41,1.67-6.57,5.62-17.49,17.53-29.09,26.54-35.73,9.11-6.72,19.53-11.35,30.97-13.76,11.83,2.59,22.9,7.84,32.05,15.21,11.99,9.66,19.98,21.19,23.74,34.25.75,2.6,1.31,5.27,1.68,7.93v65.4h-116.64Z"/>
          <path class="cls-11" d="M4558.81,794.8c11.6,2.57,22.46,7.74,31.42,14.97,11.83,9.53,19.7,20.89,23.41,33.75.73,2.53,1.28,5.12,1.64,7.72v64.33h-114.64v-65.64c.41-2.13.95-4.27,1.62-6.36,5.54-17.24,17.29-28.67,26.18-35.23,8.94-6.6,19.15-11.15,30.37-13.54M4558.81,792.76c-7.77,1.62-19.72,5.24-31.57,13.98-4.61,3.4-20.2,15.39-26.89,36.23-.9,2.81-1.42,5.17-1.72,6.78v67.83h118.64v-66.47c-.27-1.97-.76-4.81-1.72-8.14-5.61-19.5-19.47-31.04-24.07-34.75-12.41-10-25.23-13.85-32.67-15.46h0Z"/>
        </g>
      </g>
      <g>
        <g>
          <path class="cls-12" d="M4343.17,412.25v-96.32c0-12.75,10.37-23.13,23.13-23.13h39.73c12.59,0,22.84,10.25,22.84,22.84v96.61h-85.69Z"/>
          <path class="cls-16" d="M4406.02,293.8c12.04,0,21.84,9.8,21.84,21.84v95.61h-83.69v-95.32c0-12.2,9.93-22.13,22.13-22.13h39.73M4406.02,291.8h-39.73c-13.32,0-24.13,10.8-24.13,24.13v97.32h87.69v-97.61c0-13.17-10.67-23.84-23.84-23.84h0Z"/>
        </g>
        <g>
          <path class="cls-12" d="M3904.71,412.25v-96.32c0-12.75,10.37-23.13,23.13-23.13h39.73c12.59,0,22.84,10.25,22.84,22.84v96.61h-85.69Z"/>
          <path class="cls-16" d="M3967.56,293.8c12.04,0,21.84,9.8,21.84,21.84v95.61h-83.69v-95.32c0-12.2,9.93-22.13,22.13-22.13h39.73M3967.56,291.8h-39.73c-13.32,0-24.13,10.8-24.13,24.13v97.32h87.69v-97.61c0-13.17-10.67-23.84-23.84-23.84h0Z"/>
        </g>
        <g>
          <path class="cls-12" d="M4059.46,412.25v-96.32c0-12.75,10.37-23.13,23.13-23.13h39.73c12.59,0,22.84,10.25,22.84,22.84v96.61h-85.69Z"/>
          <path class="cls-16" d="M4122.31,293.8c12.04,0,21.84,9.8,21.84,21.84v95.61h-83.69v-95.32c0-12.2,9.93-22.13,22.13-22.13h39.73M4122.31,291.8h-39.73c-13.32,0-24.13,10.8-24.13,24.13v97.32h87.69v-97.61c0-13.17-10.67-23.84-23.84-23.84h0Z"/>
        </g>
        <g>
          <path class="cls-12" d="M4492.76,412.25v-96.32c0-12.75,10.37-23.13,23.13-23.13h39.73c12.59,0,22.84,10.25,22.84,22.84v96.61h-85.69Z"/>
          <path class="cls-16" d="M4555.61,293.8c12.04,0,21.84,9.8,21.84,21.84v95.61h-83.69v-95.32c0-12.2,9.93-22.13,22.13-22.13h39.73M4555.61,291.8h-39.73c-13.32,0-24.13,10.8-24.13,24.13v97.32h87.69v-97.61c0-13.17-10.67-23.84-23.84-23.84h0Z"/>
        </g>
        <g>
          <path class="cls-12" d="M3882.36,204.78v-66.47c0-16.89,13.63-51.29,29.46-51.29h8.6c13.95,0,27,35.27,27,51.29v66.47h-65.06Z"/>
          <path class="cls-16" d="M3920.42,88.02c5.87,0,12.42,7.03,17.98,19.28,4.65,10.25,8.02,23.29,8.02,31.01v65.47h-63.06v-65.47c0-16.13,13.46-50.29,28.46-50.29h8.6M3920.42,86.02h-8.6c-16.82,0-30.46,35.79-30.46,52.29v67.47h67.06v-67.47c0-15.17-12.54-52.29-28-52.29h0Z"/>
        </g>
        <g>
          <path class="cls-12" d="M4119.64,204.78v-66.47c0-16.89,13.63-51.29,29.46-51.29h8.6c13.95,0,27,35.27,27,51.29v66.47h-65.06Z"/>
          <path class="cls-16" d="M4157.7,88.02c5.87,0,12.42,7.03,17.98,19.28,4.65,10.25,8.02,23.29,8.02,31.01v65.47h-63.06v-65.47c0-16.13,13.46-50.29,28.46-50.29h8.6M4157.7,86.02h-8.6c-16.82,0-30.46,35.79-30.46,52.29v67.47h67.06v-67.47c0-15.17-12.54-52.29-28-52.29h0Z"/>
        </g>
        <g>
          <path class="cls-12" d="M4537.46,204.78v-66.47c0-16.89,13.63-51.29,29.46-51.29h8.6c13.95,0,27,35.27,27,51.29v66.47h-65.06Z"/>
          <path class="cls-16" d="M4575.52,88.02c5.87,0,12.42,7.03,17.98,19.28,4.65,10.25,8.02,23.29,8.02,31.01v65.47h-63.06v-65.47c0-16.13,13.46-50.29,28.46-50.29h8.6M4575.52,86.02h-8.6c-16.82,0-30.46,35.79-30.46,52.29v67.47h67.06v-67.47c0-15.17-12.54-52.29-28-52.29h0Z"/>
        </g>
        <g>
          <path class="cls-12" d="M4420.54,204.78v-66.47c0-16.89,13.63-51.29,29.46-51.29h8.6c13.95,0,27,35.27,27,51.29v66.47h-65.06Z"/>
          <path class="cls-16" d="M4458.6,88.02c5.87,0,12.42,7.03,17.98,19.28,4.65,10.25,8.02,23.29,8.02,31.01v65.47h-63.06v-65.47c0-16.13,13.46-50.29,28.46-50.29h8.6M4458.6,86.02h-8.6c-16.82,0-30.46,35.79-30.46,52.29v67.47h67.06v-67.47c0-15.17-12.54-52.29-28-52.29h0Z"/>
        </g>
        <g>
          <path class="cls-12" d="M4298.46,204.78v-66.47c0-16.89,13.63-51.29,29.46-51.29h8.6c13.95,0,27,35.27,27,51.29v66.47h-65.06Z"/>
          <path class="cls-16" d="M4336.52,88.02c5.87,0,12.42,7.03,17.98,19.28,4.65,10.25,8.02,23.29,8.02,31.01v65.47h-63.06v-65.47c0-16.13,13.46-50.29,28.46-50.29h8.6M4336.52,86.02h-8.6c-16.82,0-30.46,35.79-30.46,52.29v67.47h67.06v-67.47c0-15.17-12.54-52.29-28-52.29h0Z"/>
        </g>
        <g>
          <path class="cls-12" d="M3999.28,204.78v-66.47c0-16.89,13.63-51.29,29.46-51.29h8.6c13.95,0,27,35.27,27,51.29v66.47h-65.06Z"/>
          <path class="cls-16" d="M4037.34,88.02c5.87,0,12.42,7.03,17.98,19.28,4.65,10.25,8.02,23.29,8.02,31.01v65.47h-63.06v-65.47c0-16.13,13.46-50.29,28.46-50.29h8.6M4037.34,86.02h-8.6c-16.82,0-30.46,35.79-30.46,52.29v67.47h67.06v-67.47c0-15.17-12.54-52.29-28-52.29h0Z"/>
        </g>
        <g>
          <path class="cls-12" d="M3892.68,1144.28v-300.15c0-11.03,8.98-20.01,20.01-20.01h31.35c10.4,0,18.85,8.46,18.85,18.85v301.31h-70.22Z"/>
          <path class="cls-16" d="M3944.04,825.12c9.84,0,17.85,8.01,17.85,17.85v300.31h-68.22v-299.15c0-10.48,8.53-19.01,19.01-19.01h31.35M3944.04,823.12h-31.35c-11.6,0-21.01,9.41-21.01,21.01v301.15h72.22v-302.31c0-10.97-8.89-19.85-19.85-19.85h0Z"/>
        </g>
        <g>
          <path class="cls-12" d="M4521.99,1144.28v-300.15c0-11.03,8.98-20.01,20.01-20.01h31.35c10.4,0,18.85,8.46,18.85,18.85v301.31h-70.22Z"/>
          <path class="cls-16" d="M4573.35,825.12c9.85,0,17.85,8.01,17.85,17.85v300.31h-68.22v-299.15c0-10.48,8.53-19.01,19.01-19.01h31.35M4573.35,823.12h-31.35c-11.6,0-21.01,9.41-21.01,21.01v301.15h72.22v-302.31c0-10.97-8.89-19.85-19.85-19.85h0Z"/>
        </g>
        <g>
          <path class="cls-12" d="M4320.81,1144.28v-300.15c0-11.03,8.98-20.01,20.01-20.01h31.35c10.4,0,18.85,8.46,18.85,18.85v301.31h-70.22Z"/>
          <path class="cls-16" d="M4372.17,825.12c9.85,0,17.85,8.01,17.85,17.85v300.31h-68.22v-299.15c0-10.48,8.53-19.01,19.01-19.01h31.35M4372.17,823.12h-31.35c-11.6,0-21.01,9.41-21.01,21.01v301.15h72.22v-302.31c0-10.97-8.89-19.85-19.85-19.85h0Z"/>
        </g>
        <g>
          <path class="cls-12" d="M4097.29,1144.28v-300.15c0-11.03,8.98-20.01,20.01-20.01h31.35c10.4,0,18.85,8.46,18.85,18.85v301.31h-70.22Z"/>
          <path class="cls-16" d="M4148.65,825.12c9.84,0,17.85,8.01,17.85,17.85v300.31h-68.22v-299.15c0-10.48,8.53-19.01,19.01-19.01h31.35M4148.65,823.12h-31.35c-11.6,0-21.01,9.41-21.01,21.01v301.15h72.22v-302.31c0-10.97-8.89-19.85-19.85-19.85h0Z"/>
        </g>
      </g>
      <g>
        <path class="cls-8" d="M3893.18,1624.5v-143.85c0-15.75,12.82-28.57,28.57-28.57h45.32c14.49,0,26.28,11.79,26.28,26.28v146.14h-100.17Z"/>
        <path class="cls-17" d="M3967.07,1453.58c13.66,0,24.78,11.11,24.78,24.78v144.64h-97.17v-142.35c0-14.92,12.14-27.07,27.07-27.07h45.32M3967.07,1450.58h-45.32c-16.61,0-30.07,13.46-30.07,30.07v145.35h103.17v-147.64c0-15.34-12.44-27.78-27.78-27.78h0Z"/>
      </g>
      <g>
        <path class="cls-8" d="M4491.54,1624.5v-143.85c0-15.75,12.81-28.57,28.57-28.57h45.32c14.49,0,26.28,11.79,26.28,26.28v146.14h-100.17Z"/>
        <path class="cls-17" d="M4565.43,1453.58c13.66,0,24.78,11.11,24.78,24.78v144.64h-97.17v-142.35c0-14.92,12.14-27.07,27.07-27.07h45.32M4565.43,1450.58h-45.32c-16.61,0-30.07,13.46-30.07,30.07v145.35h103.17v-147.64c0-15.34-12.44-27.78-27.78-27.78h0Z"/>
      </g>
      <g>
        <path class="cls-13" d="M4069.78,1530.54v-64.78c0-13.87,4.58-30.47,11.95-43.31,8.57-14.93,19.85-23.16,31.75-23.16h12.04c26.27,0,43.71,40.01,43.71,66.47v64.78h-99.45Z"/>
        <path class="cls-11" d="M4125.52,1400.29c25.67,0,42.71,39.41,42.71,65.47v63.78h-97.45v-63.78c0-13.71,4.53-30.11,11.82-42.81,4.86-8.46,15.33-22.66,30.89-22.66h12.04M4125.52,1398.29h-12.04c-27.39,0-44.7,40.6-44.7,67.47v65.78h101.45v-65.78c0-26.74-17.45-67.47-44.71-67.47h0Z"/>
      </g>
      <g>
        <path class="cls-13" d="M4300.18,1530.54v-64.78c0-13.87,4.58-30.47,11.95-43.31,8.57-14.93,19.85-23.16,31.75-23.16h12.04c26.27,0,43.71,40.01,43.71,66.47v64.78h-99.45Z"/>
        <path class="cls-11" d="M4355.92,1400.29c25.67,0,42.71,39.41,42.71,65.47v63.78h-97.45v-63.78c0-13.71,4.53-30.11,11.82-42.81,4.86-8.46,15.33-22.66,30.89-22.66h12.04M4355.92,1398.29h-12.04c-27.39,0-44.71,40.6-44.71,67.47v65.78h101.45v-65.78c0-26.74-17.45-67.47-44.71-67.47h0Z"/>
      </g>
      <g>
        <rect class="cls-1" x="4085.25" y="1142.91" width="96.01" height="23.3"/>
        <path class="cls-4" d="M4180.26,1143.91v21.3h-94.01v-21.3h94.01M4182.26,1141.91h-98.01v25.3h98.01v-25.3h0Z"/>
      </g>
      <g>
        <rect class="cls-1" x="4305.34" y="1142.91" width="96.01" height="23.3"/>
        <path class="cls-4" d="M4400.35,1143.91v21.3h-94.01v-21.3h94.01M4402.35,1141.91h-98.01v25.3h98.01v-25.3h0Z"/>
      </g>
      <g>
        <rect class="cls-1" x="4509.95" y="1142.91" width="96.01" height="23.3"/>
        <path class="cls-4" d="M4604.96,1143.91v21.3h-94.01v-21.3h94.01M4606.96,1141.91h-98.01v25.3h98.01v-25.3h0Z"/>
      </g>
      <g>
        <rect class="cls-1" x="3878.92" y="1142.91" width="96.01" height="23.3"/>
        <path class="cls-4" d="M3973.93,1143.91v21.3h-94.01v-21.3h94.01M3975.93,1141.91h-98.01v25.3h98.01v-25.3h0Z"/>
      </g>
    </g>
  </g>
  <g id="_Слой_3" data-name="Слой 3">
    <g>
      <path class="cls-24" d="M987.97,1595.96c-69.06,8-146.52,13.39-231.06,13.54-87.35.15-167.2-5.32-238.12-13.54-.2-24.92-.39-49.83-.59-74.75,72.89,5.95,151.92,9.57,236.36,9.42,83.33-.15,161.37-3.95,233.42-10.01v75.34Z"/>
      <path class="cls-21" d="M989.14,1518.86c-.05-4.74-144.64-7.09-238.12-7.06-91.34.03-234.54,2.36-234.59,7.06-.04,4.3,119.21,10.53,234.59,10.59,117.38.06,238.16-6.26,238.12-10.59Z"/>
      <g>
        <rect class="cls-21" x="723.39" y="872.63" width="57.62" height="64.74"/>
        <rect class="cls-21" x="723.39" y="937.37" width="57.62" height="64.74"/>
        <rect class="cls-21" x="723.39" y="1002.11" width="57.62" height="64.74"/>
        <rect class="cls-21" x="723.39" y="1066.85" width="57.62" height="64.74"/>
        <rect class="cls-21" x="723.39" y="1131.59" width="57.62" height="64.74"/>
        <rect class="cls-21" x="723.39" y="1196.33" width="57.62" height="64.74"/>
        <rect class="cls-21" x="723.39" y="1261.07" width="57.62" height="64.74"/>
        <rect class="cls-21" x="723.39" y="1325.82" width="57.62" height="64.74"/>
        <rect class="cls-21" x="723.39" y="1390.56" width="57.62" height="64.74"/>
        <path class="cls-21" d="M781.01,1521.22c-8.73.72-18.17,1.16-28.22,1.18-10.5.02-20.33-.43-29.4-1.18v-64.74h57.62v64.74Z"/>
      </g>
      <g>
        <rect class="cls-30" x="748.67" y="852.03" width="7.06" height="14.13"/>
        <g>
          <ellipse class="cls-31" cx="752.2" cy="836.72" rx="15.87" ry="15.89"/>
          <polygon class="cls-31" points="748.08 820.83 752.79 802 756.9 820.83 748.08 820.83"/>
        </g>
      </g>
      <rect class="cls-19" x="723.39" y="866.74" width="57.62" height="5.89"/>
      <text class="cls-23" transform="translate(527.87 1590.58) rotate(2.92)"><tspan x="0" y="0">А</tspan></text>
      <text class="cls-23" transform="translate(573.04 1592.85) rotate(2.27)"><tspan x="0" y="0">З</tspan></text>
      <text class="cls-23" transform="translate(608.72 1594.3) rotate(1.61)"><tspan x="0" y="0">И</tspan></text>
      <text class="cls-23" transform="translate(656.54 1595.62) rotate(.92)"><tspan x="0" y="0">Я</tspan></text>
      <text class="cls-23" transform="translate(696.03 1596.21) rotate(.48)"><tspan x="0" y="0"> </tspan></text>
      <text class="cls-23" transform="translate(711.44 1596.34) rotate(.24)"><tspan x="0" y="0"> </tspan></text>
      <text class="cls-23" transform="translate(726.82 1597.81) rotate(-.17)"><tspan x="0" y="0">Е</tspan></text>
      <text class="cls-23" transform="translate(762.72 1597.91) rotate(-.77)"><tspan x="0" y="0">В</tspan></text>
      <text class="cls-23" transform="translate(801.88 1596.99) rotate(-1.38)"><tspan x="0" y="0">Р</tspan></text>
      <text class="cls-23" transform="translate(841.03 1595.51) rotate(-2.09)"><tspan x="0" y="0">О</tspan></text>
      <text class="cls-23" transform="translate(891.05 1593.06) rotate(-2.86)"><tspan x="0" y="0">П</tspan></text>
      <text class="cls-23" transform="translate(937.42 1590.74) rotate(-3.58)"><tspan x="0" y="0">А</tspan></text>
    </g>
  </g>
</svg>